<?xml version="1.0" encoding="UTF-8"?><svg id="Layer_1" xmlns="http://www.w3.org/2000/svg" viewBox="0 0 2160 2160"><defs><style>.cls-1,.cls-2{fill:#fff;}.cls-3{letter-spacing:0em;}.cls-2{font-family:Garamond-Bold, Garamond;font-size:584.19px;font-weight:700;}</style></defs><text class="cls-2" transform="translate(259.75 2150.54)"><tspan x="0" y="0">Se</tspan><tspan class="cls-3" x="571.92" y="0">r</tspan><tspan x="778.44" y="0">ene</tspan></text><g><path class="cls-1" d="m1056.01,278.41c22.02-5.94,64.19-189.98,71.94-204.29,3.09-5.7,5.94-11.53,9.45-17,3.5-5.45,7.74-10.49,11.57-15.77,2.27-3.12,5.81-6.2,6.23-9.57.87-6.86,5.97-9.89,10.37-14.36,9.76-9.9,22.46-13.38,35.43-16.5,16.03-2.73,29.77.67,59.63,8.66,24.95-.98,47.93,5.35,70.89,12.9,6.5,2.14,21.05,2.8,27.81,4.15,11.38,2.28,59.59,22.74,72.61,27.07,10.42,3.46,20.37,8.36,30.05,13.41,10.96,3.13,23.6,17.94,25.16,22.42,2.6.99,7.74,26.83,10.16,38.35,2.31,11.02,1.26,22.61,2.65,33.84,1.12,9.06,3.68,17.98,6.02,28.9,4.55-3.35,18.02,118.42,17.92,131-.09,11.84-3.68,23.77-6.65,35.45-1.85,7.28-2.68,14.09.33,21.38,7.49.46,10.27-4.76,13.3-8.6,7.02-8.89,15.79-12.43,27.7-11.47,6.22.5,12.65-1.43,19-2.19,8.7-1.04,17.02-1.5,25.48,2.42,7.56,3.5,15.43,6.44,23.74,7.82,14.06,2.33,25.37,8.2,35.39,17.24,4.13,3.73,9.44,7.12,14.88,8.68,16.75,4.81,30.47,13.31,44.58,23.05,17.25,11.9,26.94,26.31,34.03,44.19,3.18,8.01,4.74,15.52,4.39,23.76-.29,6.82-.86,13.71-.11,20.46.38,3.43,2.67,7.25,5.34,9.78,11.3,10.73,14.29,22.47,4.44,33.46-11.78,13.15-16.12,29.01-22.65,44.03-7.22,16.62-12.49,33.98-18.44,51.06-.8,2.29-.63,4.87-.91,7.31.93.27-1.85,8.37-2.68,7.89-1.6,1.24-3.98,2.19-4.67,3.77-10.69,24.69-29.35,45.38-42.37,70.96,4.36-.37,7-.13,9.27-.87,16.72-5.39,33.36-11.02,50.05-16.5,6.38-2.09,11.54-1.34,18.2,1.97,26.18,13.04,47.62,31.76,70.42,48.75,14.06,10.48,26.29,23.16,38.63,35.46,3.52,3.51,5.29,9.01,6.49,13.88,1.58,6.4-.43,11.85-9.49,12.9,1.44,3.68,1.99,6.78,3.69,9.18,10.62,15.04,12.32,31.14,12.57,49.11.38,27.29-10.3,52.21-13.75,78.51-1.2,9.14-5.31,17.27-17.59,18.23-1.75.14-3.74,2.5-4.83,4.25-5.05,8.11-9.74,16.42-14.73,24.57-1.58,2.58-3.17,6.37-5.62,7.08-13.58,3.95-17.42,15.97-25.31,24.65-8.99,9.9-18.21,19.63-27.78,29.05-22.66,22.3-44.86,45.07-68.65,66.29-16.95,15.12-36.11,28.09-54.04,42.29-8.7,6.88-16.92,14.3-24.11,22.55-8.4,9.64-18.63,16.82-30.8,21.17-14.36,5.13-23.68,14.09-29.56,27.12-1.78,3.95-6.22,7.29-10.22,9.87-11.02,7.09-22.45,13.62-33.12,20.02-.08,6.11,3.69,6.79,7.57,6.72,8.57-.16,16.6,1.1,24.23,5.09,2.54,1.33,6.21.79,9.35,1.18,2.69.33,6.15-.08,7.93,1.31,10.49,8.2,23.17,8.58,35.72,8.99,8.99.3,13.12,3.8,17.5,11.54,9.46,16.72,21.2,32.41,33.02,47.86,3.84,5.02,10.55,8.36,16.42,11.78,9.27,5.4,16.71,11.17,13.12,22.89-1.32,4.29,1.21,7.17,5.63,9.18,6.69,3.04,12.88,7.06,19.65,9.9,8.91,3.74,14.24,10.24,15.95,18.51,1.75,8.4,5.61,14.28,14.09,17.83,2.41,1.01,4.38,3.25,6.11,5.26,4.95,5.74,11.01,9.07,19.69,7.87.65,2.58,1.45,4.56,1.62,6.59.74,9.27,7.43,13,15.91,15.73,9.19,2.96,18.37,6.14,27.1,10.09,15.93,7.2,20.73,20.82,23.3,35.47.3,1.71.41,4.54.34,6.28-.6,15.61,3.15,28.79,21.28,34.33,2.98.91,5.58,2.86,10.23,5.33-8.05,4.81-12.78,7.22-16.97,10.26-4.35,3.15-7.75,7.53-12.34,10.28-11.48,6.89-21.99,4.66-30.18-6.33-3.13-4.21-5.2-9.14-7.42-13.88-4.55-9.73-9.44-18.46-22.95-19.9-6.67-.71-10.55-6.14-13.92-11.75-10.29-17.15-21.21-33.98-33.02-52.73-2.74,3.74-5.48,6.42-6.87,9.61-2.58,5.95-5.29,12.08-6.27,18.35-1.29,8.28-6.42,12.99-13.61,16.85-5.17,2.78-10.07,6.01-16.43,9.85-1.67-4.14-3.64-7.46-4.32-10.99-4.48-23.06-17.48-41.03-36.04-56.72-16.81-14.22-21.46-14.35-25.58-28.78,4.96,3.36,8.6,5.93,12.34,8.35,12.4,8.01,24.83,15.98,37.27,23.94,1.54.98,3.1,1.94,4.74,2.78,10.24,5.27,16.73,5.81,19.73,1.72,3.67-5,.41-17.13-5.96-22-1.05-.8-2.29-1.38-3.36-2.02,1.6-11.57-3.09-18.85-16.11-25.55-8.88-4.57-17.4-9.82-26.59-13.77-11.79-5.07-24.3-5.71-36.93-2.31-9.23,2.49-10.84,1.67-15.07-5.88-2.13-3.8-4.46-7.57-7.43-10.86-5.93-6.59-4.77-13.74-2.03-20.69,2.92-7.42,9.87-8.34,17.86-7.2,6.04,8.22,13.87,14.07,25.76,12.8,2.65-6.26-.59-9.54-5.62-12.24-3.6-1.94-7.1-4.04-10.45-6.34-10.15-6.95-20.39-13.9-22.57-25.02-10.79-2.71-20.23-4.52-29.19-7.54-5.7-1.92-10.87-5.01-15.38-8.77-5.65-4.71-11.36-6.79-18.96-4.36-6,9.86-7.26,22.37-18.87,30-6.47-2.38-4.49-8.57-5.6-13.02-3.26-13.07-6.93-15.12-20.33-9.85-3.41,1.34-6.46,3.56-9.94,4.69-11.53,3.74-14.87,1.64-17.74-11.79,14.29-5.59,24.61-18.37,41.95-20.24,7.42-.8,7.91-3.15,4.4-13.85-10.41,5.16-20.69,9.82-30.47,15.23-13.16,7.28-25.9,15.21-38.9,22.73-4.95,2.86-9.44,5.55-7.6,12.16,2.32,8.34,5.9,12.48,13.41,12.79,7.39.31,14.85-.76,22.24-.42,13.86.62,27.71,1.62,41.5,2.99,2.22.22,4.3,3.04,6.15,4.91,8.72,8.82,10.39,9.05,22.32,2.86,1.56-.81,3.28-1.36,6.72-2.77,6.06,9.07,12,17.95,18.32,27.41-2.36,7.78-7.64,14.07-14.73,19.25-3.18,2.32-7.61,3.97-5.89,9.07,1.82,5.37,6.57,5.16,11.33,5.44,19.56,1.16,37.07,8.22,53.93,16.79,2.81,1.43,4.68,4.46,5.59,8.4-13.89-4.34-27.84-8.54-41.66-13.05-12.71-4.15-25.18-8.97-37.98-12.85-6.05-1.84-7.07-6.45-9.1-10.63-7.33-15.06-12.68-17.86-30.25-14.92-8.22,1.38-16.49,2.63-22.55,9.1-5.36,5.73-12.43,3.69-18.12,1.09-9.84-4.49-19.13-10.03-28.48-15.39-5.52-3.16-10.05-5.35-15.9.27-5.05,4.84-10.08,3.83-12.81-2.58-3.91-9.18-8.26-18.77-8.98-28.4-1.06-14.16-6.55-26.74-11.28-40.77-5.58-.28-11.07-.42-16.54-.85-7.02-.56-11.6,1.33-16.18,7.21-5.56,7.13-13.91,12.42-21.22,18.34-1.29,1.04-3.77,2.18-5,1.71-8.5-3.24-15.02.56-22.16,4.02-7.29,3.53-15.19-.53-17-8.09-.8-3.33-.22-6.93-.81-10.32-1.15-6.5-9.26-10.76-15.72-8.13-4.66,1.89-9.01,4.47-13.47,6.72-6.98-5.13-14.07-10.35-21.85-16.08.62-4.96,1.29-10.38,2.02-16.24,4.49-1.42,9.15-2.32,13.13-4.34,2.98-1.51,7.35-4.65,7.17-6.78-.6-7.05,4.53-9.7,8.96-13.44,7.92-6.68,14.87-14.48,23.39-20.37,7.39-5.1,9.03-10.27,3.08-19.84,8.09,3.66,12.98,3.8,18.42.02,14.45-10.05,29.42-19.49,44.52-28.71,17.71-10.81,36.24-20.49,53.55-31.81,19.32-12.63,37.85-26.3,56.36-39.96,16.37-12.08,32.16-24.82,48.34-37.12,4.88-3.71,10.18-6.94,15.29-10.39.76.74,1.51,1.49,2.27,2.23-6.78,7.11-13.76,14.06-20.28,21.38-5.29,5.93-10.05,12.27-14.96,18.48-3,3.81-5.26,8.27-8.84,11.51-31.3,28.26-62.22,56.93-94.54,84.16-16.12,13.58-34.95,24.42-52.55,36.5-2.82,1.93-5.65,3.85-8.47,5.78l.93,2.95c3.65.25,7.31.67,10.96.69,7.89.04,16.03-1.34,23.61.02,14.8,2.65,26.69-1.52,38.78-8.99,12.76-7.88,26.35-14.42,37.15-24.94,21.11-20.56,42.36-41.04,64.25-60.89,12.93-11.74,27.45-21.97,40.78-33.35,11.28-9.64,21.84-20,32.79-29.97,19.43-17.69,39.1-35.16,58.33-53.04,18.4-17.1,36.54-34.44,54.46-51.96,12.68-12.4,24.81-25.27,36.88-37.62,6.86,2.14,9.96,5.64,8.32,10.26-2.99,8.43-6.56,16.79-10.95,24.67-6.58,11.84-13.93,23.32-21.27,34.78-2.09,3.27-4.65,7.14-8.07,8.66-14.41,6.42-23.89,17.83-34.46,28.05-37.08,35.86-74.6,71.19-115.5,103.48-24.76,19.55-46.84,41.98-70.69,62.56-12.56,10.84-26.3,20.5-39.59,30.6-3.52,2.67-7.36,4.99-11.45,7.74,3.42,6.99,6.41,13.11,10.15,20.77,12.78-8.18,24.48-15.64,36.15-23.15,3.82-2.46,7.25-5.68,11.41-7.4,21.88-9.07,39.65-22.86,56.24-38.27,13.44-12.48,36.28-32.08,50.54-43.75,35.29-28.9,71.15-57.24,102.43-90.04,16.62-17.43,31.62-36.27,49.21-52.78,17.79-16.71,30.69-36.75,47.25-54.2,3.03-3.2,5.36-7.08,7.45-10.91,2.67-4.89,1.02-8.28-4.59-9.4-17.44,10.58-24.08,29.08-39.78,42.2-10.7-4.83-17.43,4.62-27.02,8.46,7.74-8.36,15.87-16.46,23.06-25.2,3.83-4.65,7.43-10.19,8.63-15.79,1.51-7.02,4.4-10.72,12.18-11.75,3.35-.44,6.39-2.89,10.08-4.66-6.37-9.47-12.27-18.08-18-26.77-8.25-12.52-16.69-24.95-24.44-37.73-5.17-8.52-8.36-18.06-13.47-26.64-1.28-2.15-2.85-4.12-4.41-6.1-8.84-11.19-14.46-23.05-12.63-37.61.66-5.21-1.81-10.78-3.03-16.15-.65-2.84-2.36-5.59-2.43-8.4-.14-6.22-3.88-9.35-9.49-11.32-22.62,5.31-39.9,19.03-58.08,31.18-13.96,9.33-27.44,19.29-40.98,29.16-3.63,2.64-6.41,6.28-10.07,8.89-6.19,4.41-12.3,9.25-19.27,12.32-12.83,5.66-23.61,13.69-34.1,22.25-14.61,11.93-28.76,24.42-44.11,35.47-6.51,4.68-15.33,7.41-23.55,9.04-12.87,2.55-26.96,14.06-30.92,26.32-1.78,5.51-6.54,13.77-10.04,18.53-8.21,11.15-16.46,22.39-26.08,32.45-6.94,7.25-15.6,14.03-24.97,18.09-9.21,3.99-14.34,10.55-20.05,17.16-3.74,4.33-6.9,9.08-10.98,14.53,3.6,4.07,1.29,8.19-2.02,12.87-10.92,15.42-22.09,30.82-26.13,49.4-.27,1.24-.58,3.02-1.51,3.51-11.26,5.92-12.45,18.94-21.79,26.2-2.73,2.12-5.42,4.28-7.63,6.87-3.98,4.65-7.74,9.74-10.49,15.15-9.47,18.64-18.13,37.64-28.11,56.03-4.83,8.9-7.12,8.4-14.39.04-.52-.6-1.51-.84-3.01-1.63-5.05,3.73-10.79,7.26-15.57,11.67-8.03,7.41-12.46,15.61-7.19,26.77,3.09,6.56,3.88,14.13,5.11,21.34,1.55,9.11-4.81,14.17-13.25,19.44-4.78-3.53-10.39-6.68-14.57-11.01-5.49-5.69-10.17-7.17-16.06-.9-.75.8-2.55.76-4.45,1.26-9.68-7.57-12.43-17.2-10.77-28.66.98-6.77,1.65-13.77.87-20.51-1.27-10.93-7.85-14.88-18.36-10.35-7.44,3.2-13.93,2.83-21.45,1.61-8.91-1.44-18.87-4.26-24.07,5.68-1.91,0-2.84.1-3.74-.02-7.36-.98-15.64-.41-21.81-3.47-6.03-2.98-9.43-10.19-14.87-14.61-5.29-4.29-10.16-10.32-20.05-9.06,1.61,3.25,2.96,5.78,4.14,8.38,6.16,13.68,8.95,27.28,2.78,41.98-1.91,4.55.66,10.72,1.38,18.25,14.08-5.33,26.46-10.02,40.35-15.28,1.5.81,4.9,3.03.23,6.52-21.03,15.71-42.39,30.3-71.39,31.34-7.5.27-15.69,5.18-21.91,9.84-8.29,6.22-16.63,10.36-27.44,10.68-7.64.23-11.05,4.59-6.99,10.1,7.62,10.33,2.49,20.92,2.09,31.1-.4,10.31-9.67,15.84-23.6,17.75-13.26-23.88-20.57-27.6-46.43-22.85.97,5.24,2.75,10.55,2.71,15.84-.04,5.53-2.13,11.01-2.8,16.57-.71,5.88-3.71,8.59-10.15,7.82-18.59-2.24-36.04,2.33-53.4,7.57-11.58,3.49-20.57,9.8-26.68,19.72-2.41,3.91-5.68,7.36-10.07,12.94-1.8-4.69-3.08-6.8-3.37-9.01-.66-5.11-.91-10.28-1.18-15.43-.22-4.18-2.1-9.85.09-12.22,4.02-4.37,10.09-7.93,16.04-9.8,13.63-4.28,27.66-7.51,41.62-10.82,9.03-2.14,18.32-3.38,27.34-5.55,7.88-1.9,10.95-6.83,11.29-17.08-8.74,2.16-18.12,11.39-26.38-.93,4.98-2.13,9.35-4.01,14.49-6.21-11.93-6.36-12.89-6.23-20.16,2.02-4.43,5.02-8.36,10.52-13.43,14.9-3.03,2.62-8.48,5.49-11.65,4.6-3.31-.93-5.2-6.22-7.67-9.62-.24-.32-.11-.85-.24-1.27-1.29-4.34-1.39-11.37-4.15-12.42-5.04-1.92-11.96-1.33-17.56.05-11.79,2.9-18.71,12.4-27.38,19.47-3.8,3.1-6.91,7.3-11.24,9.42-9.39,4.6-14.77,11.3-16.76,20.83-1.5,7.2-3.65,14.28-5.35,21.44-2.48,10.49-7.51,19.44-17.08,25.95-1.81,1.23-2.97,3.26-4.25,4.72,2.16,2.52,5.85,4.92,5.65,6.99-.39,3.96-2.22,8.27-4.83,11.48-6.64,8.15-14.03,15.76-20.13,22.49,3.43,14.74,12.8,19.69,25.43,21.41,4.29.59,10.62,1.38,12.1,3.98,3.07,5.41,4.39,12.05,4.76,18.28.27,4.5-2.17,9.14-3.64,14.62-9.79-4.21-17.37-2.35-24.34,5.36-3.22,3.57-9.69,4.69-14.78,6.73-10.66,4.28-21.53,8.13-32.02,12.74-6.75,2.97-12.84,4.72-20.2-1.55,4.99-3.78,9.47-7.18,14.51-11-1.35-2.47-2.72-4.97-4.33-7.93,3.4-5.41,8.31-6.73,15.12-6.05,4.79.47,9.85-.92,14.71-1.84,3.15-.59,6.24-2.79,9.23-2.6,12.11.78,19.06-5.22,24.91-15.77-15.2-3.8-21.83-15.89-29.63-26.78-7.85-10.97-9.41-22.9-.88-33.98,9.78-12.69,8.53-27.03,8.83-41.09.15-7.12-2.13-14.29-3.19-20.67,8.29-9.71,16.16-18.75,23.77-27.97,1.64-1.99,2.99-4.57,3.35-7.02,2.03-14.06,3.82-28.16,5.48-42.26.75-6.36-2.97-10.33-8.64-13.56-28.16-16.07-56.2-32.33-84.23-48.58-.19-.11-7.91-5.62-8.1-5.73-6.17-3.89-43.95-16.79-55.69-42.78-4.55-10.08-12.5-16.54-22.13-22.5-14.22-8.8-28.2-18.2-40.9-28.77-16.57-13.8-31.43-29.34-47.77-43.4-7.05-6.07-15.63-10.81-24.09-15.22-8.82-4.59-19.91-6.41-27.13-12.4-9.05-7.5-18.91-15.09-23.38-26.76-2.86-7.47-7.78-14.37-12.46-21.12-2.99-4.31-4.73-7.99-.39-12.09-.51-.85-.78-2.05-1.39-2.23-13.64-3.88-18.35-15.03-23.73-25.37-4.84-9.3-.02-27.54,8.69-25.62,1.27-8.36,1.81-16.31,3.79-23.94,2.91-11.23,8.44-22.04,10.01-33.37,2.85-20.48,16.87-36.09,25.08-54.17,5.01-11.03,10.68-22.93,19.68-30.97,8.73-7.8,18.01-15.55,23.76-24.83,12.7-20.53,34.41-28.67,55.78-38.96-1.19-1.63-1.82-3.51-3.16-4.18-13.16-6.53-22.04-16.6-30.33-27.93-12-16.4-25.21-32.12-38.84-47.42-8.26-9.27-18.4-17.1-27.47-25.77-8.09-7.72-16.09-15.53-23.76-23.61-13.53-14.26-18.86-32.4-26.17-49.52-3.83-8.96-6.88-18.17-9.74-27.43-.85-2.74-2.32-5.97-1.94-8.83,1.26-9.41,2.62-18.85,4.75-28.12,1.5-6.55,5.28-12.16,13.27-13.46,6.41-1.04,9.92-4.34,10.82-10.18.78-5.06,2.29-9.35,9.24-9.25,1,.01,2.86-1.36,2.92-2.18.72-10.2,10.13-15.14,15.72-22.31,9.75-12.51,21.55-23.38,31.03-36.36,9.09-12.45,24.38-21.05,37.09-31.18,6.66-5.31,13.63-10.29,20.49-15.4,31.38-23.39,63.68-45.27,104.12-53.49,4.95-1.01,10.36-2.03,15.2-1.23,13.43,2.24,28.06.5,47.96,2.53,16.57.87,76.99,50.58,76.83,50.09-2.95-9.01-66.97-128.2-64.29-146.86-.91-29.02-19.19-49.77,3.44-77,13.64-16.41,14.63-35.3,21.55-44.63,18.91-25.48,27.39-30.11,44.79-44.78,19.36-16.32,42.39-43.69,60.2-52.61,44.57-22.31,85.18-24.72,126.32-23.8,30.76.68,69.42,32.05,79.05,45.85,43.57,62.4,74.76,220.74,105.04,210.17Zm119.59,940.7c1.29.06,2.59.13,3.88.19,1.97-3.67,4.12-7.26,5.86-11.03,2.19-4.74,3.68-9.78,6.1-14.41,5.66-10.78,12.06-21.24,17.52-32.11,8.04-16,15.69-32.17,23.21-48.39,7.16-15.44,14.25-30.91,20.75-46.59,3.3-7.96,4.78-16.54,7.91-24.57,2.18-5.59,6.58-10.46,8.56-16.08,7.34-20.87,14.15-41.89,20.97-62.91,1.06-3.26.96-6.83,1.7-10.19,3.34-15.1,3.33-30.89,11.28-45.05,4.07-7.24,8.92-14.43,11.04-22.2,6.48-23.78,12.35-47.73,17.45-71.8,6.27-29.56,10.95-59.42,17.46-88.94,3.24-14.71,8.35-29.16,13.79-43.34,8.89-23.2,16.88-46.56,21.29-70.88.85-4.67,1.26-9.43,2.34-14.05,5.69-24.33,11.76-48.59,17.27-72.96,6.67-29.51,12.77-59.13,19.47-88.63,1.41-6.22,5.16-12.01,6.38-18.24,2.9-14.82,4.97-29.77,7.3-44.68,3.15-20.08,7.24-40.08,9.13-60.26,3.45-36.84,5.3-73.8,8.43-110.66.97-11.44-.3-22.31-3.93-33.12-2.57-7.65-8.09-11.16-16.45-10.55-5.5.4-11.05.3-16.51.93-3.6.42-7.58,1.01-10.52,2.76-12.27,7.33-26.21,7.35-39.25,5.5-11.3-1.61-20.8-.75-31.01,3.54-10.15,4.27-29.69-.08-32.51-7.99-2.82-7.9-8.55-8.25-14.73-9.26-12.4-2.03-24.85-3.81-37.33-5.36-4.05-.51-8.27-.16-12.39.09-15.52.94-29.36-1.33-39.57-13.98-7.31-9.05-25.44-7.64-31.9,1.87-10.57,15.53-16.85,32.66-21.39,50.37-3.43,13.34-6.15,26.85-9.84,40.13-1.06,3.81-4.35,7.11-6.68,10.6-6.3,9.43-14.84,17.63-15.33,29.9-.35,8.75-4.87,17.04-.2,26.33,2.44,4.85-.45,10.75-5.31,15.16-3.14,2.85-6.32,6.57-7.33,10.39-7.92,29.71-18.7,58.88-20.58,89.8-.26,4.22-1.55,8.49-3.03,12.53-6.23,17-8.3,34.44-7.49,53.99,9.57-1.34,9.96,4.05,9.92,11.05-.04,7.7,1.53,15.47,2.98,23.11,1.03,5.45.99,10.06-3.95,14.12-4.87,4-9.8,6.37-17.33,1.77,0,6.72-1.39,11.86.25,15.98,6.09,15.35,2.39,28.51-7.87,41.07-2.05,2.51-2.57,6.38-2.93,9.71-1,9.02-1.82,18.08-2.17,27.13-.39,9.91-.25,19.84-.15,29.75,0,1.05,1.24,2.09,2.17,3.54,1.39-1.49,2.49-2.66,3.62-3.87,5.67,4.6,7.14,10.46,6.53,17.19-.42,4.71-.13,9.48-.17,14.22-.1,12.48,1.13,25.14-.68,37.4-1.98,13.4-6.79,26.43-10.37,39.63-2.66-10.59-3.89-20.84-4.54-31.11-.65-10.3-.72-20.63-1.04-30.95-2.78,1.63-3.06,3.22-3.21,4.83-.8,8.59.57,18.04-2.93,25.55-3.62,7.78-3.22,14.85-3.01,22.48.13,4.73-.08,9.48-.37,14.21-2.42,40.02-8.48,79.9-4.85,120.16.85,9.42-.98,19.1.4,28.41,2.05,13.78.64,27.39.22,41.08-.18,6.01,1.12,12.86-1.53,17.84-4.86,9.17-2.76,17.52-.7,26.39,1.75,7.55,3.94,15.16,4.31,22.81.77,15.88-.35,31.86.76,47.71,1.84,26.26,3.92,52.42.79,78.76-.95,7.98-4.08,13.69-10.47,18.42-6.65-5.15-6.24-5.13-6.02-10.14.45-10.19,1.35-20.47.42-30.58-2.89-31.33-6.48-62.6-9.95-93.87-1.66-15-4.07-29.94-5.37-44.96-1.25-14.55-1.54-29.18-2.15-43.78-.05-1.22.28-2.8,1.11-3.65,6.72-6.8,5.37-15.4,5.36-23.25-.03-19.81-1.6-39.53.32-59.45,2.07-21.46,1.53-43.15,1.77-64.74.06-5.12-.74-10.41-2.19-15.36-10.62-36.2-6.94-72.78-4.09-109.41,1.14-14.6,1.25-29.29,1.38-43.94.03-3.3-.96-7.14-2.92-9.82-4.3-5.87-5.61-12.23-3.31-18.47,2.42-6.53-3.17-7.91-6-10.14.84-4.7,1.46-8.52,2.22-12.31,1.52-7.54,3.92-15.02,4.51-22.62,1.12-14.46,1.9-29,1.53-43.48-.26-10.21-3.3-20.35-3.92-30.58-1.35-22.37-1.48-44.8-3.07-67.15-.72-10.07-1.13-19.71,2.9-29.3,3.74-8.9,2.63-17.64-1.71-26.33-4.07-8.16-7.78-16.53-10.94-25.03-10.71-28.85-26.55-55.97-33.81-85.98-.3-1.22-1.03-2.46-1.89-3.44-8.85-10.04-12.11-21.23-7.26-32.98-20.64-18.55-27.47-40.95-18.77-59.73,4.19-1.15,8.54-2.34,12.72-3.48,4.2,7.02,7.33,13.82,11.94,19.6,7.73,9.67,11.74,20.62,13.94,32.05,7.61,39.56,19.31,78,35.31,115.33,1.42,3.32,2.08,7.96,8.75,7.12,7.7-16.88,5.27-34.51-6.15-47.58-12.58-14.39-13.64-31.63-21.12-47.07-.82-1.69-.35-4.43.55-6.25,5.06-10.28,1-19.69-3.74-28.54-8.06-15.05-16.43-30.03-25.94-44.32-8.03-12.06-17.41-23.46-30.59-31.46-6.53-3.97-13.14-3.81-15.34,1.79-4.5,11.47-16.09,14.53-25.54,19.92-12.24,6.98-26.64,11.31-37.45,19.71-17.16,13.33-35.42,23.39-57.11,28.44-4.38,1.02-9.32,2.97-12.21,5.96-11.06,11.49-26.82,13.04-41.14,17.07-11.49,3.23-23.85,3.74-35.74,5.85-12.74,2.26-14.78,4.37-12.8,16.81,2.1,13.17,7.48,26.05,8.26,39.21,1.41,23.69,10.93,45.09,18.13,67.25,7.61,23.42,13.95,47.19,21.14,70.73,2,6.53,4.68,12.94,7.68,19.15,4.17,8.65,9.64,16.8,13.29,25.61,7.01,16.87,12.84,34.15,19.72,51.06,4.23,10.4,7.03,21.48,16.04,29.87,2.44,2.27,3.05,6.2,4.53,9.37,6.81,14.6,11.07,30.93,21,43.4,17.82,22.36,30.29,47.4,46.09,70.71,5.59,8.25,8.79,18.02,12.25,27.36,7.53,20.34,15.1,40.34,30.46,57.39,11.58,12.85,20.97,27.43,30.86,41.53,4.81,6.85,9.38,14.04,12.59,21.61,13.42,31.62,30.05,62.21,35.78,96.34,1.85,11.03,1.11,21.64.08,34.27-2.86-2.5-4.17-3.15-4.65-4.14-9.86-20.46-19.5-41.01-29.46-61.42-5.18-10.62-12.06-20.65-16.08-31.61-4.87-13.29-11.78-25.31-20.21-36.76-11.03-14.97-22.07-29.94-33.19-44.85-14.03-18.8-28.22-37.5-42.16-56.36-2.31-3.13-4.86-6.74-5.26-10.32-.88-8.01-5.71-13.38-11.37-18.71-9.36-8.81-18.97-17.45-27.53-26.9-6.5-7.18-11.02-15.88-17.37-23.2-5.7-6.57-12.71-12.15-19.11-18.2-1.21-1.15-3.23-2.44-3.24-3.67-.02-6.66-5.76-9.56-9.81-13.54-7.01-6.9-14.7-13.28-21.11-20.62-25.44-29.12-50.4-58.61-75.76-87.79-8.75-10.07-17.87-19.91-27.38-29.37-6.04-6-9.82-5.91-15.11-.03-5.85,6.51-10.86,13.66-17.21,21.78,22.3,15.29,47.32,26.84,54.45,53.44-12.66-17.66-32.29-28.06-49.31-41.13-9.99-7.66-14.12-7.42-22.66.28-4.34,3.91-8.23,8.28-12.73,12.02-7.55,6.27-14.49,14.04-23.35,17.9-22.33,9.74-41.67,22.18-55.86,41.16-2.27,3.04-5.97,6.1-9.66,7.14-16.56,4.64-28.88,15.54-42.76,24.04-6.46,3.96-12.11,9.31-17.33,14.69-8.68,8.92-15.86,19.23-25.32,27.3-7.1,6.05-12.33,12.53-15.87,19.45,3.05,6.01,5.31,11.22,8.23,16.09,7.17,11.96,11.74,25.47,24.22,34.3,5.51,3.9,10.92,8.04,15.68,12.68,10.25,9.98,19.41,21.01,30.23,30.4,11.48,9.95,24.22,18.7,36.73,27.58,4.52,3.21,10.01,4.34,15.89,2.12,13.55-5.12,27.32-4.42,41.27-1.2,3.53.82,7.47.12,14.19.12-14.2-14.5-26.62-26.07-37.6-38.72-11.04-12.72-23.98-24.3-33.41-40.14,11.63.74,12.94,9.06,17.48,13.85,18.43,19.41,36.36,39.23,54.13,59.15,3.22,3.61,6.16,6.07,11.45,6.04,5.1-.03,10.25.39,15.3,1.09,2.6.36,6.49,1.16,7.28,2.8,4.13,8.59,12.01,12.45,20.37,16.55,3.58,1.76,5.9,6.33,7.95,10.02,4.69,8.42,10.69,14.74,21.3,17.19,6.65,1.54,12.87,4.85,19.09,7.72,10.02,4.61,20.13,9.14,29.75,14.41,8.75,4.8,16.96,10.47,25.29,15.92,8.7,5.7,16.92,12.1,25.94,17.32,31.27,18.06,58.46,39.99,77.12,69.78,7.67,12.25,18.3,21.65,29.2,31.13,8.42,7.33,16.13,15.37,24.05,23.18,7.93,7.83,15.98,15.58,23.48,23.75,4.76,5.19,8.8,10.98,12.8,16.71,1.46,2.09,1.27,5.24,2.88,7.16,9.98,11.89,19.86,23.87,30.55,35.2,7.94,8.41,18.01,15.19,25.42,23.94,9.73,11.47,17.63,24.27,26.62,36.29,5.55,7.41,11.52,14.57,17.59,21.63,8.71,10.13,17.89,20.02,22.59,32.43,3.59,9.47,8.4,17.67,16.41,24.9,6.04,5.45,9.26,13.53,14.04,20.25,1.31,1.84,3.74,2.99,5.66,4.46.89-.36,1.77-.72,2.66-1.07-.41-3.51-.53-7.08-1.31-10.52-.77-3.36-2.64-6.53-3.26-9.9-.95-5.16,1.48-9.02,7.51-8.23,16.17,2.13,29.92-5.19,44.62-8.85,3.44-.85,7.14-1.04,10.73-1.07,7.86-.07,15.81.89,23.57.11,13.03-1.31,12.86-1.68,19.36,9.26,2.86,4.82,6.31,9.35,9.49,14Zm-770.44-177.9c1.38,6.66,9.93,9.26,16.57,13.73,5.15,3.47,9.7,7.69,14.72,11.34,10.09,7.32,20.36,14.42,30.46,21.72,3.2,2.31,6.56,4.64,9.04,7.54,5.74,6.71,10.82,13.9,16.47,20.67,11.05,13.26,21.9,26.7,33.6,39.45,11.11,12.11,21.87,24.56,36.93,33.19,18.92,10.85,38.87,20.37,55.37,34.59,1.32,1.14,3.29,1.61,4.86,2.54,19.88,11.8,39.75,23.63,59.59,35.48,1.17.7,2.11,1.71,3.22,2.49,10.78,7.5,21.55,15.01,32.36,22.46,6.27,4.32,13.28,7.91,18.83,12.91,16.5,14.88,17.58,15.64,35.18,13.62,2.75-.32,5.4-1.59,8.14-1.79,9.73-.69,19.91-3.01,29.15-1.25,21.85,4.16,43.62,9.32,64.67,16.08,10.77,3.46,19.52,4.3,29.13-2,4.02-10.21-5.12-22.36,5.16-32.68,4.28-.31,9.22-.67,13.61-1,7.71,13.29,11.47,14.72,25.95,9.35,9.09-3.37,17.89-7.42,26.7-11.39,11.44-5.15,11.98-7.19,6.29-17.95-9.59-18.14-19.09-36.33-28.49-54.55-1.38-2.67-1.9-5.7-3.03-8.49-2.9-7.14-5.2-14.6-9.09-21.25-4.38-7.49-10.61-14.03-15.36-21.36-9.78-15.09-18.5-30.8-28.81-45.57-10.55-15.11-22.39-29.45-33.84-44-4.66-5.93-9.12-12.19-14.84-17.16-12.28-10.69-23.09-22.24-32.08-35.51-6.08-8.97-13.93-16.9-20.93-25.34-7.34-8.84-14.59-17.74-21.94-26.58-2.78-3.35-5.13-7.31-8.68-9.74-13.67-9.36-27.73-18.24-41.68-27.24-2.49-1.6-5.19-2.92-9.86-5.52.72,6.36,1.2,10.68,1.99,17.7-4.26-3.35-7.17-5.02-9.22-7.35-13.25-15.05-26.12-30.38-39.56-45.28-3.84-4.25-7.23-10.15-17.03-9.73,2.72,3.96,4.26,6.94,6.53,9.33,5.52,5.84,11.55,11.27,17,17.16,1.27,1.37,1.05,3.91,1.72,6.75-28.46-22.2-55.75-43.4-82.89-64.74-6.69-5.26-12.91-11.05-19.37-16.56-5.46-4.66-10.43-5.33-12.87-.57-8.69,16.96-26.42,29.48-28.46,49.71-.2,1.98-2.31,3.73-3.11,5.73-1.76,4.38-4.15,8.78-4.63,13.32-.62,5.82-3.69,9.34-8.37,12.67-9.52,6.76-20.12,12.61-22.7,25.11-.57,2.76-4.76,5.07-7.6,7.22-21.09,15.98-39.13,34.08-51.99,56.76-6.96,12.26-17.01,23.02-26.79,35.96Zm1100.1-191.75c.94.74,1.88,1.49,2.82,2.23,3.8-2.23,7.72-4.33,11.38-6.74,4.92-3.24,9.5-6.94,14.5-10.07,12.51-7.82,28.29-11.89,34.9-26.44.47-1.04,2.12-1.62,3.19-2.45,17.85-13.84,35.68-27.69,53.53-41.52,12.72-9.86,22.56-21.59,28.91-35.93,4.77-10.77,10.03-21.4,15.71-31.78,16.23-29.65,31.49-59.67,39.84-92.18,3.22-12.54,5.33-25.33,7.46-38.08.4-2.43-1.48-5.18-2.77-9.21-4.55,2.7-7.46,4.66-10.61,6.23-5.63,2.81-11.25,5.74-17.16,7.97-6.38,2.41-12.96,4.68-19.7,5.9-9.09,1.65-18.62,3-26.81-2.89-13.22-9.52-26.72-18.77-39.2-29.08-9.63-7.95-19.52-15.6-28.36-24.59-9.07-9.22-17.87-18.35-25.47-28.67-6.7-9.1-13.81-18.16-23.42-23.77-6.3,5.06-12.8,8.87-17.24,14.16-8.24,9.82-16.17,20.06-22.62,30.95-10.24,17.28-21.2,34.51-18.52,55.79.66,5.21-1.26,11.19-3.62,16.15-6.36,13.38-13.58,26.41-20.49,39.56-4.43,8.42-4.21,16.85-.76,27.48,7.49-7.2,9.68-14.64,11.67-21.95,2.94-10.8,10.89-15.7,22.48-17.53-24.74,40.21-43.38,82.55-56.96,129.1-8.12-5.93-14.6-5.84-17.3,1.68-2.45,6.84-2.81,14.3-4.68,21.36-5.65,21.33-4.68,44.44-19.86,63.23-1.07,1.32-1.37,3.2-1.92,4.85-6.55,19.72-13.98,39.24-19.39,59.23-6.88,25.42-9.99,51.63-19.49,76.57-5.84,15.34-9.72,31.31-14.63,46.95-3.26,10.4-6.42,20.73-1.7,32.91,4.16-5.55,6.78-10.16,10.49-13.82,21.94-21.64,44.17-43.04,66.22-64.59,5.4-5.28,10.88-10.3,11.48-18.57.28-3.89,3.13-8.32,6.22-11.21,9.71-9.06,20.04-17.56,30.22-26.19,11.28-9.56,22.78-18.9,33.97-28.55,7.81-6.73,11.15-14.54,6.34-24.42-2.15-4.41-2.45-9.31,2.4-13,8.49-6.47,16.96-12.96,27.53-21.03-3.44,8.78-6.02,15.36-8.6,21.94Zm-63.39-753.35c-7.42-12.47-20.28-16.31-32.79-20.65-2.87-.99-6.02-1.63-8.51-3.17-8.49-5.26-16.35-11.52-25.24-16.07-5.42-2.78-12.23-3.52-18.54-4.42-5.37-.77-11.04.13-16.37-.77-7.22-1.22-14.15-3.92-21.37-5.15-13.22-2.26-26.56-3.99-39.86-5.8-16.47-2.24-33.39-6.47-46.53,7.99-12.74,1.96-13.31,11.58-15.28,20.49-1.34,6.06,1.2,9.91,6.72,12.77,8.14,4.21,16.03,8.84,24.31,12.77,3.64,1.73,7.93,2.88,12.01,3.11,18.59,1.04,37.21,1.82,55.82,2.38,14.44.43,29.35-1.64,43.25,1.02,26.82,5.12,52.8-.28,79.12-1.87.71-.04,1.36-1.05,3.27-2.63Zm-562.75-34.87c-15.9-4.65-29.94-10.11-45.07-1.11-4.42,2.63-10.86,2.15-16.11,3.79-8.71,2.72-17.27,5.9-25.8,9.1-7.22,2.71-13.65,7.01-22.4,5.62-5.55-.88-9.93,1.84-9.74,8.18.06,2.11-.4,4.23-.41,4.34-5.58,5.11-9.78,8.86-13.85,12.72-4.87,4.61-9.66,9.29-14.44,13.97-4.75,4.65-9.81,9.08-14.05,14.1-4.79,5.67-4.2,24.61.97,29.38,1.94,1.78,6.01,3.06,8.59,2.5,10.32-2.2,20.8-4.39,30.52-8.15,11.95-4.63,23.08-11.04,34.79-16.25,7.06-3.14,15.44-4.28,21.65-8.38,11.68-7.7,22.85-16.29,33.07-25.61,13.44-12.26,26.59-25.06,32.26-44.22Zm-344,339.97c-8.66-1.75-16.62-1.25-24.27,2.81-18.98,10.07-38.16,19.77-53.41,34.83-5.7,5.63-12.79,10.02-18.72,15.46-11.17,10.27-21.86,20.98-32.94,31.34-7.47,6.98-15.21,13.71-22.94,20.45-.93.81-2.45,1.2-3.77,1.44-14.47,2.65-16.49,16.08-24.52,24.29-.48.49-.25,1.66-.19,2.5.48,6.31.98,12.63,1.52,18.94.5,5.76,4.12,8.81,10.16,7.63,3.5-.69,7.18-2.27,9.9-4.41,7.4-5.82,13.73-12.94,21.56-18.14,24.5-16.28,42.51-38.88,65.77-56.57,17.61-13.4,35.4-27.81,48.48-45.9,1.19-1.65,3.93-2.27,5.41-3.81,3.85-4.02,8.21-7.9,10.85-12.57,3.13-5.52,4.68-11.81,7.1-18.27Zm1188.98,118.33c-2.3-6.22-3.89-11.92-6.45-17.2-6.44-13.29-14.5-26.03-19.62-39.72-3.61-9.64-9.54-17.22-17.93-22.15-9.33-5.48-16.32-12.45-23.26-20.03-10.01-10.94-23.2-17.51-38.88-22.79,1.93,12.83,4.95,24.24,5.06,35.67.17,17.67,3.98,33.6,13.87,49.14,7.55,11.85,16.87,20.01,30.25,25.22,7.66,2.98,14.68,7.33,22.24,10.54,4.4,1.87,9.3,3.68,14.01,3.78,6.35.13,12.75-1.42,20.71-2.45Zm118.93,354.28c.43-17.32-11.3-39.1-26.12-50.96-9.13-7.3-17.77-15.11-26.62-22.7-3.74-3.21-7.22-7.24-13.21-5.45-10.38,3.11-15.93,8.88-15.88,16.51.1,17.85,4.66,35.05,9.54,52.15.9,3.16,3.11,6.47,5.74,8.64,12.73,10.51,15.82,26.17,24.66,38.74,1.37,1.95.71,5.04,1.43,7.5.8,2.71,1.91,7.39,3.23,7.5,3.21.26,8.02-.69,9.72-2.83,6.29-7.91,11.71-16.43,17.23-24.85,4.45-6.79,1.37-16.51,9.83-21.9.77-.49.46-2.41.45-2.34Zm-1508.49,110.79c7.91,3.68,14.25,7.41,21.15,9.62,6.71,2.15,13.54,5.07,20.77-1.12,14.29-12.22,28.65-24.62,44.52-34.92,14.33-9.3,17.44-21.51,17.25-35.9-.03-2.14-.81-4.32-.55-6.41,1.48-11.79-5.32-19.57-14.78-25.79-6.88-4.53-11.58-3.71-13.92,3.63-2.47,7.75-8.39,11.72-15.1,14.14-9.77,3.52-16.03,9.54-21.76,17.31-3.75,5.1-9.38,10.09-15.39,12.43-8.74,3.4-12.32,8.21-12.26,16.62.02,3.18-.7,7.85-2.96,9.28-8.78,5.55-7.28,13.19-6.97,21.09Zm774.79,253.57c8.44,1.71,13.73,3.87,18.75,3.4,3.03-.28,6.28-4.27,8.13-7.29,1-1.64-.08-6.39-1.36-6.81-2.99-1-7.22-1.25-9.96.03-4.68,2.18-8.6,5.76-15.56,10.67Zm-28.41-15.22c-10.27,4-12.19,10.15-12.99,16.95,11.94,5.88,14.61,4.79,14.53-5.82-.03-3.17-.85-6.33-1.54-11.13Zm-432.97-923.13c.94-.42,1.88-.83,2.82-1.25-2.65-12.9-12.88-35.82-20.35-41.61,6.57,16.07,12.05,29.46,17.53,42.86Zm341.31,1004.43c9.47-7.52,9.26-12.28,0-17.93v17.93Zm-647.02-285.68q-8.04,1.73-12.93,7.59c7.22,2.46,10.78.12,12.93-7.59Zm487.1-369.83c.96-.67,1.92-1.34,2.88-2.01-3.43-4.2-6.86-8.41-10.28-12.61-1,.7-2.01,1.41-3.01,2.11,3.47,4.17,6.94,8.34,10.41,12.52Zm406.34,664.48c2.32-1.53,4.69-3.01,6.85-4.71.16-.13-1-2.59-1.85-2.76-4.8-1.01-6.27,1.83-5.01,7.48Zm257.07,10.93c-.63-1.01-1.26-2.02-1.89-3.04-5.56-.81-7.64,1.8-7.32,9.64,4.11-2.95,6.66-4.77,9.21-6.6Z"/><path class="cls-1" d="m1154.92,1465.17c-20.86,1.39-39.85,2.61-51.19,23.2-.22-12.17,2-18.14,13.89-21.42,15.94-4.39,24.03-17.22,37-24.49,10.97-6.15,20.97-13.85,32.16-19.6,10.97-5.64,22.83-6.51,34.87-1.18,4.39,1.94,9.89,3.26,14.61,2.73,9.35-1.05,14.94,2.13,19.2,9.55,2.36,4.1,5.63,8.36,9.69,10.92,15.25,9.61,19.74,24.81,24.08,39.64,2.34,8,6.12,13.92,12.6,19.28,4.33,3.59,8.02,8.17,10.88,12.89,5.99,9.91-4.2,16.24-7.77,23.7-2.43,5.08-8.63,8.76-13.53,12.65-6.11,4.84-13.01,5.33-20.92,3.53-13.08-2.96-26.53-4.54-39.64-7.42-5.75-1.26-11.02-4.35-16.58-6.45-8.1-3.06-16.04-6.75-24.45-8.76-8.81-2.1-16.79-4.78-23.09-11.08-7.01-7.02-15.83-8.75-25.61-6.65-8.6,1.84-17.25,3.57-25.65,6.02-13.68,3.99-29.93-8.38-25.99-21.04,1.35-4.34,7.51-7.78,12.14-10.74,4.05-2.59,8.89-4.35,13.64-5.7,6.56-1.86,13.28-3.56,20.07-4.32,11.82-1.33,13.63-2.28,19.6-15.25Zm-43.21,33.88c12.32,6.84,22.47,5.43,32.69,1.61,14.79-5.53,27.75-3.67,39.8,6.63,6.76,5.78,14.71,10.62,22.8,14.74,14.43,7.37,29.62,6.37,44.34.56,2.67-1.05,6.18-5.63,5.57-7.6-5.44-17.69-9.94-35.72-21.72-51.25-6.9-9.09-15.88-11.58-27.29-12.32-18.58-1.21-31.89,6.3-40.88,19.9-7.82,11.82-19.46,15.11-32.58,17.08-4.12.62-8.63.52-12.23,2.14-3.59,1.61-6.28,4.97-10.49,8.51Zm67.83,22c-5.44-11.79-6.17-12.16-18.73-10.16,7.33,3.98,13.03,7.07,18.73,10.16Z"/><path class="cls-1" d="m1074.93,1663.66c-14.58,1.84-30.53.92-44.17-7.86-18.89-12.14-37.42-8.19-57.08-2.14-18.88,5.81-38.21,11.27-57.82,13.93-16.74,2.27-34.42,2.44-50.82-3.76-4.97-1.88-9.75-4.97-13.58-8.48-12.06-11.07-12.66-15.91,3.56-28.03,12.17-9.09,25.45-17.05,38.89-24.5,5.68-3.15,13.32-5.77,19.57-5.04,18.51,2.18,36.03-.97,53.72-4.9,14.46-3.21,28.98-6.35,43.65-8.55,4.94-.74,11.54-2.51,15.29,3.96.61,1.05,4.67,1.29,6.63.62,20.45-6.94,40.2.32,60.13,2.5,6.79.74,14.31,1.92,19.81,5.27,8.36,5.1,16.28,10.78,24.86,15.75,10.2,5.91,10.83,13.61,5.69,23.61-9.81,19.09-27.77,25.49-48.6,27.52-5.99.58-12.11.09-19.73.09Zm35.02-40.51c-1.37-9.21-6.16-15.29-14.49-18.6-12.26-4.88-25.28-5.9-38.32-4.38-14.31,1.67-28.42,5.35-42.74,6.13-14,.77-27.78,7.35-42.16,1.92-1.37-.52-3.52.85-5.34,1.19-11.83,2.23-23.57,5.24-35.53,6.43-18.48,1.83-31.85,11.43-44.05,22.89-6.6,6.2-3.89,12.85,5.33,14.97,2.23.51,4.64.32,6.95.56,22.46,2.27,42.87-7.74,64.73-9.39,4.84-.36,9.25-4.15,14.15-5.39,19.33-4.92,38.49-15.46,58.75-2.37,1.44.93,3.54,1.03,5.35,1.45,8.59,1.97,17.19,3.92,25.78,5.87,11.8,2.69,33.11-5.17,39.32-14.74,1.36-2.1,1.7-4.78,2.28-6.53Zm-243.13,32.71c3.2-9.59,5.91-17.74,9.17-27.51-5.34,2.9-9.52,5.08-13.6,7.42-4.46,2.56-8.66,5.64-7.11,11.19,1.51,5.42,5.65,8.45,11.53,8.91Z"/><path class="cls-1" d="m1477.87,1513.55c11.38-2.99,20.4.53,28.58,5.79,3.53,2.27,7.39,5.82,8.34,9.41,1.7,6.4,5.73,8.59,11.83,8.79,21.34.71,38.7,11.56,57.39,19.02,6.53,2.6,10.8,6.38,10.65,13.59-.13,6.38.87,12.8.45,19.16-.36,5.56-3.64,9.47-10.15,10.82-7.06,1.47-12.45,5.27-16.76,10.86-2.64,3.42-6.54,6.1-10.18,8.76-6.11,4.47-12.53,6.99-20.56,3.44-7.87-3.48-16.15-6.18-24.26-9.19-1.71-.63-3.54-1.75-5.2-1.59-12.11,1.2-22.41-3.23-33.47-6.94-7.92-2.66-18.3-.59-27.19,1.12-21.44,4.13-42.67,8.71-64.84,5.89-12.21-1.55-15.85-7.35-8.38-15.92,6.89-7.91,14.9-15.13,23.23-21.78,4.87-3.89,7.98-7.36,8.8-13.67.87-6.64,4.12-13.1,6.95-19.39,1.2-2.66,3.49-6.06,6.08-6.85,20.37-6.18,34.94-25.95,58.66-21.31Zm-63.19,70.5c.97,1.63,1.31,2.89,1.82,2.95,17.41,2.03,35.06,6.03,51.2-4.39,5.85-3.78,11.83-4.78,18.31-1.51,6.46,3.25,13.14,6.18,19.36,9.77,8.39,4.85,16.37,5.83,20.32.95,5.42-6.69,9.98-13.99,15.73-22.2-23.47-11.21-46.07-22.01-70.38-33.62-16.38,2.54-26.71,7.7-31.88,20.48-4.92,12.15-11.42,22.23-24.48,27.57Zm-3.52-13.92c9.1.55,11.86-4.66,13.87-10.59,4.25-12.55,12.31-21.87,25.53-27.36,6.06-2.52,11.67-5.98,18.4-9.49-9.23-2.99-16.31-1.27-22.78,2.64-6.6,3.98-12.58,8.89-19.38,12.52-13.73,7.32-15.69,18.94-15.64,32.28Zm87.47,33.78c-8.31-12.46-18.91-14.95-28.68-7.5,7.61,7.63,16.98,8.45,28.68,7.5Zm-103.85-14.35c-4.27,3.37-5.1,7.19.09,11.1,6.57,4.95,14.1,4.17,20.67-1.7-6.65-3.01-13.44-6.08-20.76-9.4Z"/><path class="cls-1" d="m1575.42,1726.06c-6.43-2.88-11.22-5.53-16.37-7.24-13.16-4.37-19.93-15.2-28.41-24.12-1.87-1.96-1.02-7.75.69-10.74,9.1-15.87,22.93-26.6,41.59-32.49,8.99-2.84,17.16-7.92,25.65-12.08,1.98-.97,3.65-2.46,5.63-3.42,14.73-7.14,29.62-14,44.22-21.35,12.76-6.42,19.38-18.3,28.35-28.13,4.96-5.43,11.19-10.23,17.76-13.89,3.32-1.84,9.01-1.52,13.08-.41,8.87,2.42,17.39,5.95,26.05,9.04,12.32,4.4,18.55,20.97,11.77,31.41-.7,1.07-1.61,2.21-2.73,2.83-17.4,9.59-33.18,22-52.92,27.54-9.72,2.73-19.84,4.92-29.93,5.72-11.56.91-17.86,5.52-23.16,15.3-11.59,21.39-27.37,39.98-50.57,52.07-2.35,1.22-4.38,3.06-6.31,4.84-1.6,1.47-2.84,3.27-4.4,5.12Zm36.22-70.58c-.95-.89-1.89-1.78-2.84-2.66-14.22,9.4-28.77,18.43-42.5,28.41-4.82,3.5-8.71,8.93-11.11,14.22-2.7,5.94,3.85,12.04,10.81,10.8,3.1-.55,6.05-2.09,8.94-3.42,21.32-9.91,28.84-28.74,36.7-47.35Zm-56.44,16.39c-16.25,8.73-19.78,15.39-15.22,22.97,5-7.55,10.11-15.26,15.22-22.97Z"/><path class="cls-1" d="m804.25,1517.19c-2.49-11.16,8.65-19.35,15.58-29.27,1-1.43,2.99-2.34,3.72-3.83,7.15-14.52,19.32-13.98,33.03-9.93,3.92,1.16,8.27,1.93,12.33,1.66,7.19-.46,13.79-.77,19.12,5.09,1.54,1.7,5.8,3.32,7.48,2.54,13.32-6.21,29.88,1.77,42.24-8.53,1.75-1.46,5.45-2.2,7.72-1.59,11.51,3.06,22.87,6.65,34.25,10.11,6.11,1.86,8.3,5.53,8.24,11.76-.14,16.47-6.93,26.8-23.85,28.21-14.06,1.17-24.48,7.94-35.17,14.27-7.84,4.64-15.78,6.76-24.57,8.12-10.04,1.55-20,3.64-29.93,5.76-11.73,2.51-23.27,6.01-35.12,7.67-4.98.7-11.41-1.05-15.69-3.72-10.44-6.53-19.27-24.15-19.37-38.32Zm135.79-17.14c-12.81,0-23.59-1.52-33.53.5-7.53,1.53-13.99,6.81-22.15,1.75-1.02-.63-3.37.77-5.13.93-5.33.48-11.1,2.17-15.93.9-9.71-2.56-17.53,1.07-25.3,4.73-7.39,3.49-9.86,9.07-7.77,14.93,2.28,6.37,7.04,10.47,14.52,9.95,7.37-.51,14.97-1.16,21.9-3.31,10.56-3.27,20.5-8.2,30.94-11.83,5.99-2.08,12.47-4.27,18.69-4.17,10.82.18,17.36-4.42,23.75-14.37Z"/><path class="cls-1" d="m1236.12,1631.15c.24-3.32.45-6.26.77-10.88,5.5-1.43,11.65-2.81,17.65-4.63,9.69-2.94,19.1-6.82,28.95-9.11,11.21-2.6,22.7-4.5,34.2-5.59,15.23-1.44,27.64,5.67,30.26,19.11,2.36,12.12,9.18,17.07,21.24,18.13.92.08,2.01.15,2.68.63,3.16,2.25,8.24,4.34,8.7,7.06.44,2.62-3.24,6.94-6.33,8.76-10.91,6.43-22.2,12.35-33.62,17.98-6.74,3.32-13.81,2.55-19.54-2.23-9.95-8.29-21.26-8.75-32.54-4.2-17.41,7.03-35.58,5.6-53.63,5.47-4.36-.03-9.14-2-12.96-4.22-6.35-3.68-12.53-8.27-12.41-16.12.13-8.19,6.82-11.6,13.95-14.43,3.84-1.52,7.52-3.39,12.62-5.73Zm8.04,16.81c26.89,3.33,48.94-7.61,74.4-7.48-3.71-5.45-5.91-8.66-8.09-11.88-3.63-5.35-8.88-7.69-15.46-6.15-17.98,4.2-36.13,8.26-50.86,25.51Zm-4.93,11.46c-5.67-5.85-9.86-10.16-13.99-14.42-5.36,1.86-7.02,5.62-4.45,9.27,3.78,5.38,9.8,7.09,18.44,5.15Z"/><path class="cls-1" d="m631.12,1455.56c-.32,10.71,2.41,20.21,8.1,29.43,3.74,6.05-2.8,19.33-10.45,23.55-8.18,4.52-16.16,8.51-17,18.79-.15,1.81-3.66,3.5-5.8,5.03-10.81,7.73-20.16,16.67-25.48,28.48-2.08,4.63-3.01,9.74-4.09,14.7-1.88,8.6-1.43,17.79-7.59,26.07-6.76-3.96-11.16-10.96-20.29-9.7-1.3.18-4.49-4.3-4.92-6.89-2.96-17.98-3.74-35.94,3.03-53.51,1.85-4.8,3.6-9.68,4.86-14.63,5.24-20.75,16.71-35.97,38.25-46.12,13.18-6.21,25.53-13.01,41.38-15.21Z"/><path class="cls-1" d="m1649.26,837.56c-9.61,6.33-13.32,16.18-18.88,24.83-.95,1.48-2.64,2.89-2.79,4.42-1.25,13.4-12.36,19.51-22.36,26.52-4.79,3.36-9.32,7.04-14.07,10.45-19.72,14.13-39.85,27.64-58.28,43.45-11.98,10.28-28.34,16.3-43.02,23.74-7.74,3.93-15.15,6.94-19.16,15.61-2.71,5.87-9.82,10.02-15.08,14.84-1.64,1.51-4.19,2.34-5.41,4.04-11.45,15.95-26.74,28.3-42.72,40.11-7.6,5.62-14.62,11.91-21.88,17.92-12.61,10.44-22.06,23.15-30.83,36.39-2.32,3.51-5.48,6.6-8.58,9.59-6.36,6.14-12.61,12.41-19.52,17.98-4.72,3.8-10.48,6.51-15.78,9.7-.72-.58-1.43-1.16-2.15-1.74,3.89-7.9,7.43-15.97,11.75-23.67,4.64-8.26,12.66-14.73,14.67-24.51.41-2.02,3.5-4.4,5.88-5.1,11.02-3.24,17.34-11.3,23.9-19.11,5.76-6.87,12.08-12.54,21.29-15.82,5.85-2.08,11.1-6.43,15.62-10.67,9.13-8.55,17.62-17.7,26.3-26.66,5.14-5.31,12.07-9.27,13.18-17.52.32-2.41,4.17-4.41,6.4-6.6,14.99-14.65,29.91-29.36,45-43.92,4.44-4.28,9.36-8.14,15.79-11.08-2.17,4.77-4.35,9.55-7.15,15.7,12.28-1.76,19.89-8.86,26.53-14.96,21.6-19.8,45.38-36.86,69.82-53.4,8.12-5.5,14.11-13.63,21.39-20.27,8.83-8.06,16.91-17.1,30.15-20.26Z"/><path class="cls-1" d="m716.45,1678.81c-9.27.96-20.76.06-32.2-5.52-5.97-2.91-14.34-1.85-21.64-2.12-4.15-.15-8.42,1.25-12.48.78-2.82-.32-6.41-2.05-7.82-4.18-2.87-4.35-5.14-9.26-6.39-14.21-.75-3-.08-7.03,1.6-9.72,8.53-13.62,24.93-17.54,41.17-12.36,17.95,5.73,36.02,6.3,53.85-2.46,11.38-5.59,23.87-9.24,35.81-13.87,7.21-2.8,14.34-5.77,21.47-8.74,3.38-1.4,6.55-3.75,10.04-4.23,2.71-.37,6.69.69,8.52,2.49,5.44,5.35,3.38,19.43-2.31,24.79-4.1,3.86-8.02,8.2-10.71,12.95-3.24,5.71-7.44,9.46-13.94,11.87-4.52,1.68-9.3,4.25-12.31,7.66-9.74,11.07-22.06,16.5-37.25,16.87-4.15.1-8.31.01-15.42.01Zm-.24-17.95c-15.47-11.18-32.27-12.77-46.01-4.31,14.44,10.6,29.5,12.33,46.01,4.31Z"/><path class="cls-1" d="m974.44,1372.26c16.71,2.1,33.12,4.36,49.6,6.1,5.64.59,10.52-1.2,14.85-5.52,6.65-6.65,11.86-6.23,18.86.06,2.33,2.09,4.36,4.48,6.75,6.5,14.19,12.02,15.26,28.61,2.62,41.75-6.73,6.99-13.85,10.81-24.55,6.27-11.8-5.01-24.05-3.41-36.86-1.52-18.6,2.74-35.93-2.36-48.91-16.04-5.32-5.61-2.13-21.85,4.63-27.17,4.52-3.55,8.97-7.18,13.01-10.42Zm72.26,31.64c.15-1.05.31-2.09.46-3.14-3.5-1.95-6.8-5.09-10.53-5.63-15.45-2.22-31.02-3.67-46.56-5.31-1.32-.14-3.2-.03-4,.72-3.06,2.86-5.79,6.03-8.64,9.09,2.95,2.33,5.5,5.69,8.92,6.82,11.39,3.76,22.94,6.69,34.84.58,3-1.54,7.22-1.05,10.89-1.47,4.87-.56,9.75-1.11,14.62-1.66Zm-74.31,11.47c-1.84-6.8-2.71-10.98-8.93-12.68-2.19,6.58,1.05,9.35,8.93,12.68Z"/><path class="cls-1" d="m1016.71,1335.65c-.65-.99-1.98-3.01-4.61-7.01,22.08.08,36.79-10.82,51.83-21.82,9.16-6.7,20.57-4.64,30.75-1.43,3.75,1.18,7.06,5.43,9.1,8.99,5.18,9.05,9.69,18.45,14.16,27.83,2.52,5.29,6.72,7.54,12.66,8.86,9.43,2.09,18.87,4.57,27.86,7.91,13.54,5.04,26.13,4.35,38.72-2.42,8.87-4.77,18.2-8.55,28.83-4.7-3.01,19.94-23.19,34.6-43.62,33.48-13.37-.73-25.35-4.2-37.28-9.52-7.4-3.3-15.86-4.58-23.83-6.79-3.08-.85-6.21-1.58-9.19-2.68-14.35-5.28-22.16-14.29-22.13-29.43.01-5.42-3.59-11.44-7.16-16.14-5.1-6.73-14.69-6.83-18.32.42-5.83,11.66-15.73,11.46-26.72,11.52-6.2.04-12.4,1.65-21.04,2.91Z"/><path class="cls-1" d="m1445.63,1453.36c-6.73,3.74-10.95,6.06-15.14,8.43-2.73,1.54-6.33,2.59-7.97,4.84-5.89,8.11-14.27,8.68-23.48,8.06-6.93-.47-13.94-.17-20.84-.88-4-.41-8.12-1.66-11.7-3.38-5.77-2.78-11.24-6.15-16.68-9.48-10.07-6.18-15.55-14.75-14.82-26.15.61-9.43,1.56-18.84,2.48-29.77,7.71-.92,15.35-2.22,23.05-2.65,11.76-.65,20.91,3.16,25.37,14.19,4.55,11.23,16.4,16.17,26.4,19.58,11.75,4.01,19.17,12.71,33.31,17.22Zm-83.44-13.98c.88,4.55,1.58,8.16,2.23,11.51q26.99,7.11,32.78,3.97c-4.67-3.83-10.78-7.19-14.31-12.12-5.7-7.97-9.69-16.99-14.28-25.34-17.38,6.21-21.51,15.02-13.97,26.28,2.2-1.25,4.4-2.51,7.54-4.29Z"/><path class="cls-1" d="m1437.72,1094.62c17.08-18.6,33.41-35.81,49.03-53.56,14.5-16.48,31.43-30.21,51.14-40.92,3.51-1.9,8.41-1.61,14.45-2.63-1.46,4.43-1.7,7.1-3.09,9.06-9.95,13.97-19.51,28.23-30.44,41.52-8.96,10.89-19.3,20.87-29.68,30.66-6.81,6.42-38.91,15.88-51.4,15.88Z"/><path class="cls-1" d="m1557.26,967.33c23.95-35.46,57.36-62.25,95.34-89.16-4.87,17.1-12.06,29.49-23.29,39.9-7.89,7.31-15.6,14.78-23.63,21.95-6.16,5.49-11.16,11.78-22.06,11.28-4.88-.22-10.24,6.53-15.2,10.33-3.1,2.38-5.86,5.15-8.77,7.74-.8-.68-1.6-1.36-2.4-2.04Z"/><path class="cls-1" d="m1675.9,917.96c.6,9.63-2.03,16.49-6.83,21.23-19.61,19.4-34.64,42.7-58.06,58.85-2.96,2.04-5.98,4.02-9.06,5.91-7.27,4.46-14.56,8.89-21.92,13.22-1.85,1.09-3.99,1.76-6.62,1.91,38.3-29.02,70.29-63.35,102.49-101.12Z"/><path class="cls-1" d="m1381.55,1129.09c-3.2,6.15-4.56,11.37-7.97,14.89-17.15,17.67-37.42,31.66-62.32,41.04,1.19-2.22,1.79-5.07,3.67-6.54,9.21-7.24,18.73-14.13,28.18-21.11,11.9-8.79,23.84-17.54,38.45-28.28Z"/><path class="cls-1" d="m1466.35,1105.23c16.46-11.59,32.92-23.17,49.37-34.76.79.86,1.58,1.71,2.37,2.57-5.08,9.05-15.77,12.7-23.99,18.65-8.22,5.96-16.96,11.3-25.47,16.92-.76-1.13-1.53-2.26-2.29-3.38Z"/><path class="cls-1" d="m1518.69,915.08c10.73-10.58,20.94-21.69,37.14-25.39-9.56,11.87-21.92,20.39-37.14,25.39Z"/><path class="cls-1" d="m1620.74,1030.83c3.06-11.85,15.01-17,22.69-25.35.97-1.06,4.8.13,9.22.39-11.52,9.34-15.44,23.98-32.24,24.63l.33.33Z"/><path class="cls-1" d="m1553.87,1088.77c12.68-10.7,25.37-21.4,39.26-33.12,2.44,7.65-2.55,10.63-6.41,13.41-10.06,7.25-20.49,14.06-30.77,21.04-.69-.44-1.39-.89-2.08-1.33Z"/><path class="cls-1" d="m1547.93,1052.16c-7.18,5.01-14.36,10.03-22.26,15.54q2.08-7.79,22.26-15.54Z"/><path class="cls-1" d="m1620.41,1030.49c-2.73,8.79-9.63,14.39-17.21,19.47,2.2-9.24,9.93-14.14,17.55-19.12,0,0-.33-.34-.33-.34Z"/><path class="cls-1" d="m1566.75,1039.29c2.65-2.9,5.3-5.8,7.94-8.69.76.71,1.53,1.42,2.29,2.13-2.99,2.57-5.98,5.14-8.97,7.71-.42-.38-.85-.77-1.27-1.15Z"/><path class="cls-1" d="m1212.73,809.3c2-12.45,3.41-22.16,5.14-31.82,4.25-23.75,8.58-47.49,12.99-71.21,3.7-19.92,7.15-39.89,11.46-59.69,2.67-12.22,6.92-24.14,10.17-36.27,3.77-14.09,6.98-28.31,10.88-42.36,2.05-7.4,5.44-14.48,7.51-21.87,2.55-9.12,4.09-18.47,6.53-27.62,4.02-15.04,8.44-29.98,12.63-44.98.69-2.49,2.01-5.26,1.42-7.54-2.99-11.69-1.19-22.94,1.39-34.51,3.94-17.67,6.29-35.65,9.74-53.42,6.47-33.42,12.84-66.87,20.03-100.16,5.45-25.25,12.01-50.29,18.34-75.37,1.23-4.88,3.72-9.48,5.62-14.21,1.03-.01,2.06-.02,3.09-.04,2.83,10.06,6.9,19.99,8.17,30.21,1.53,12.35,2.13,25.12.5,37.4-1.79,13.54-6.59,26.73-10.04,40.08-1.93,7.47-3.84,14.95-5.62,22.45-2.68,11.33-5.22,22.69-7.83,34.04-.39,1.69-.82,3.36-1.25,5.04-4.31,16.98-10.25,33.77-12.47,50.98-2.34,18.16-8.84,35.85-6.07,54.81,1.45,9.93-.78,20.79-3.54,30.71-11.14,40.03-17.64,81.09-31.67,120.49-5.37,15.09-9.59,30.58-13.48,46.07-5.96,23.78-11.21,47.71-16.69,71.6-1.74,7.59-2.96,15.28-4.97,22.8-1.08,4.05-2.36,8.63-5.24,11.57-5.25,5.37-7.92,11.41-9.99,18.17-1.88,6.15-4.68,12.13-7.8,17.85-1.2,2.2-4.41,3.45-8.98,6.81Z"/><path class="cls-1" d="m1326.48,568.74c.75,5.01,1.69,10,2.2,15.03.92,9.01.2,18.38,2.65,26.99,4.19,14.7-.31,28.16-4.01,41.9-.66,2.46-1.59,5.42-3.5,6.94-8.84,7.01-10.12,16.97-13.6,26.32-8.8,23.63-18.59,46.94-27.89,70.42-3.34,8.44-6.53,16.94-9.58,25.47-6.86,19.2-13.6,38.45-20.39,57.67-7.63,21.62-15.86,43.09-22.55,64.95-2.03,6.65-1,14.65.74,21.58,1.76,7.03,2.28,13.49-.22,20.27-.9,2.43-1.89,5.06-1.74,7.55,1.82,29.73-11.71,56.45-19.79,84.13-2.79,9.55-10.08,18.37-16.8,26.47-12.66,15.25-17.4,33.25-22.67,51.1-6.08,20.61-20.8,36.62-41.82,43.28,1.28-4.12,2.33-7.53,3.55-11.46-1.85-1.31-3.86-2.73-5.83-4.13.38-1.04.4-2.14.99-2.6,6.42-4.98,8.8-11.16,10.09-18.98,1.44-8.73,6.55-16.91,9.84-25.41,2.8-7.22,5.29-14.53,7.89-21.81.58-1.62.82-3.37,1.59-4.9,12.02-23.74,21.18-48.4,28.24-73.76.68-2.45,1.2-5.89,3.06-6.95,7.35-4.18,8.67-11.21,10.22-17.75,3.55-14.98,12.48-28.56,13.14-44.3.1-2.38,2.04-4.69,3.16-7.02,1.7-3.53,4.61-6.96,4.95-10.59,2.07-22.68,16.91-41.44,22.09-63.15,2.29-9.59,5.89-18.92,9.15-28.3,5.22-15.06,10.56-30.09,16.02-45.08,3.67-10.1,7.71-19.97,7.48-31.01-.08-3.89,2.64-8.2,5.1-11.71,11.25-16.04,13.81-34.37,17.02-52.59,1.95-11.05,4.07-22.08,6.51-33.05,4.86-21.89,9.85-43.75,15.11-65.56.91-3.77,3.43-7.21,5.21-10.8,1.47.28,2.94.57,4.41.85Z"/><path class="cls-1" d="m978.17,952.38c-5.61.19-10.01,1.58-12.79.19-7.23-3.62-14.24-7.4-18.46-15.02-12.94-23.36-28.98-45.48-39.59-69.67-9.79-22.34-21.6-43.7-32.4-65.5-11.35-22.91-29.25-41.74-48.25-59.85-13.85-13.2-25.28-28.57-37.81-42.95-5.55-6.37-11.09-12.74-16.73-19.04-12.48-13.93-24.71-28.05-37.6-41.65-18.92-19.97-29.44-44.77-45.59-66.28-7.48-9.96-14.75-19.83-18.83-31.43q-2.43-6.9,2.39-14.65c2.24,1.35,5.18,2.22,6.52,4.07,6.96,9.69,13.55,19.61,20.2,29.49,9.07,13.46,18.59,26.68,27,40.48,15.23,24.98,35.84,46.17,55.15,68.26,10.24,11.71,21.93,22.32,32.49,33.8,22.33,24.28,44.94,48.36,66.28,73.37,15.59,18.27,27.82,38.59,38.25,59.98,16.85,34.56,35.03,68.56,52.66,102.79,1.95,3.8,3.95,7.57,7.11,13.6Z"/><path class="cls-1" d="m717.09,812.6c-11.63-15.49-23.58-30.79-34.8-46.53-15.11-21.21-29.61-42.8-44.47-64.17-8.55-12.29-17.09-24.6-25.97-36.68-13.87-18.89-28.26-37.46-41.91-56.48-3.64-5.08-5.35-11.34-7.95-17.06.76-.55,1.53-1.1,2.29-1.65,2.12.97,5,1.44,6.23,3.01,4.34,5.56,7.89,11.65,12.17,17.25,8.33,10.92,17.08,21.56,25.42,32.47,13.72,17.94,27.3,35.96,40.84,54.01,10.35,13.79,20.77,27.55,30.79,41.55,13.63,19.06,27.37,38.08,40.22,57.59,14.48,21.99,32.82,40.07,55.42,55.25,19.93,13.39,38.13,28.99,56.98,43.73,1.15.9,1.35,2.82.43,5.71-8.8-5.86-17.66-11.65-26.38-17.61-12.38-8.46-24.6-17.12-37.01-25.53-5.81-3.94-10.74-9.91-19.69-7.45-1.48.41-3.86-1.98-5.83-3.07-22.89-12.75-43.49-28.03-62.48-45.5-17.48-16.09-36.59-30.65-54.5-46.36-7.31-6.41-14.2-13.54-19.78-21.27-21.96-30.4-43.44-61.11-64.86-91.84-7.29-10.46-13.72-21.43-20.9-31.96-1.93-2.84-5.3-4.8-7.77-7.37-3.92-4.08-7.65-8.33-11.61-12.68,9.18-5.04,14.79-4.28,21.04,3.05,8.37,9.82,16.81,19.66,24.08,30.17,13.82,19.96,27.09,40.27,40.06,60.72,5.37,8.46,8.66,18.06,14.13,26.45,19.72,30.27,45.31,55.64,75.93,76.83,10.4,7.2,19.76,15.69,29.7,23.47,2.3,1.8,5.05,3.1,7.6,4.63.86-.88,1.73-1.77,2.59-2.65Z"/><path class="cls-1" d="m643.08,579.44c-10.49-15.13-20.67-30.46-31.69-45.26-2.73-3.66-8.07-5.72-12.35-8.31-10.12-6.14-10.46-9.18-2.3-17.26,2.41-2.38,3.96-5.52,7.04-9.95,3.04,3.37,5.97,5.83,7.87,8.86,8.38,13.41,16.5,26.95,24.64,40.49,4.07,6.77,7.77,13.74,12.02,20.41,9.67,15.19,19.76,30.15,29.28,45.42,2.96,4.75,4.53,10.24,6.95,15.3,1.85,3.87,3.65,7.84,6.17,11.34,5.66,7.88,11.76,15.49,17.67,23.21,1.08,1.41,1.86,3.18,3.28,4.18,24.59,17.36,35.19,43.77,50.22,67.18,21.88,34.05,40.8,69.75,66.67,101.54,5.86,7.2,13,13.58,18.18,21.14,8.31,12.12,20.3,22.23,24.14,36.83.52,1.98.53,4.08,1.04,8.27-6.45-5.02-11.25-8.66-15.9-12.46-.95-.77-2.03-2.2-1.89-3.19,1.84-12.94-8.53-20.99-15.72-29.02-28.08-31.34-51.51-65.33-72.18-101.12-10.76-18.62-21.7-37.15-32.71-55.64-4.96-8.33-10.27-16.35-20.09-20.94-2.43-1.14-3.37-4.8-5.38-6.99-1.82-1.99-4.18-3.57-8.64-7.26-.79,8.93-1.32,15.01-2.05,23.24-11.34-25.26-26.45-46.26-42.03-66.96-7.68-10.21-17.1-19.35-24.18-29.87-14.72-21.87-36.63-37.79-53.71-57.65-4.92-5.72-10.31-11.1-15.22-16.82-1.15-1.34-1.23-3.45-.1-6.12,13.48,11.3,27.34,22.25,40.33,34.02,12.82,11.62,24.76,24.08,37.09,36.17,1.18-.93,2.35-1.86,3.53-2.79Z"/><path class="cls-1" d="m783.04,221.2c2.86,7.36,6.11,14.49,8.3,21.88,1.18,4,.41,8.48.76,12.72.46,5.47.67,11.01,1.89,16.34,1.32,5.77,2.22,12.69,11.92,11.13.38-.06.99.21,1.25.5,7.57,8.57,17.87,16.13,22.15,25.94,15.52,35.55,29.42,71.73,43.1,107.94,7.05,18.66,13.93,37.61,17.81,56.97,2.21,11.01,4.58,21.79,8.27,32.41,1.96,5.64,2.45,11.14-5.51,14.7-1.37-1.39-3.26-2.65-4.21-4.36-16.39-29.65-29.62-60.48-39.86-92.4-5.29-16.5-10.34-33.08-15.64-49.58-1.04-3.22-2.78-6.24-4.16-9.37-2.26-5.08-4.4-10.2-6.76-15.24-1.59-3.39-3.36-6.71-5.26-9.96-.62-1.07-2.89-2.1-2.71-2.67,3.65-11.15-7.77-17.61-9.92-27.19-1.87-8.33-2.37-18.39-11.57-24.2-5.18-18.37-22.88-31.4-25.39-50.91-.05-.42-.33-.81-.45-1.22-4.46-15.52,2.82-19.14,15.99-13.45Z"/><path class="cls-1" d="m1249.77,433.26c.16,1.63.83,3.4.39,4.87-6.96,23.25-14.32,46.4-21.02,69.7-3.7,12.87-9.15,26.07-8.79,39,.45,16.16-3.75,31.57-4.2,47.32-.48,16.53-6.25,31.23-14.31,45.14-6.04,10.42-10.62,21.02-13.16,32.46-3.45,15.56-6.32,31.23-9.99,46.75-4.62,19.5-1.21,39.09-1.44,58.63-.01.86.05,1.75-.15,2.58-7.38,31.59-10.11,64.05-21.23,94.96-3.87,10.76-8.68,20.77-18.96,30.21.2-3.79.34-6.34.46-8.89.11-2.52,1.4-6.11.09-7.37-6.99-6.67-2.09-12.33.24-18.86,4.65-13.03,9.21-26.25,11.82-39.72,4.74-24.44,8.1-49.11,11.91-73.7,3.08-19.85,3.98-40.2,9.43-59.47,7.83-27.71,13.91-55.91,25.03-82.87,4-9.69,4.06-20.78,5.94-31.22,1.66-9.22,3.99-18.38,4.92-27.66,2.43-24.2,13.65-46,21.07-68.84,3.35-10.29,5.81-20.82,9.21-31.09,2.54-7.64,5.95-15.04,8.97-22.55,1.25.2,2.51.39,3.76.59Z"/><path class="cls-1" d="m1343.95,473.61c5.31-39.28,10.5-78.58,16.03-117.83,1.41-10.04,2.15-20.51,10.81-28.63-3.38-8.8-1.32-17.28,1.46-26.22,6.5-20.93,11.81-42.18,17.52-63.32,2.33-8.63,4.42-17.31,6.62-25.95,5.52-1.32,7.12,1.31,9.41,5.24,14.82,25.4,9.44,50.94,1.26,76.49-6.72,21-15.05,41.61-20.71,62.83-6.11,22.92-9.97,46.35-14.75,69.56-.43,2.1.17,4.61-.84,6.36-6.05,10.48-12.42,20.8-18.71,31.16-2.22,3.67-4.51,7.3-6.77,10.95-.44-.21-.88-.42-1.32-.63Z"/><path class="cls-1" d="m787.02,450.07c-7.01-17.36-13.68-33.84-20.32-50.34-2.92-7.26-5.76-14.55-8.71-21.81-5.87-14.46-11.57-28.97-17.78-43.31-2.23-5.15-4.79-10.64-8.83-14.52-4.6-4.41-5.83-9.45-7.51-14.8-2.22-7.07-2.92-14.38-5.22-21.56-5.21-16.29,6.01-27.42,25.05-28.36,3.76,4.78,7.61,9.53,11.25,14.42,1.3,1.75,2.58,3.72,3.06,5.75,3.77,15.86,7.21,31.79,11,47.65,3.71,15.53,7.61,31.02,11.61,46.49,3.77,14.6,7.85,29.13,11.6,43.74.51,2,.73,4.63-.25,6.29-4.06,6.88-2.16,13.24.7,19.86,1.77,4.09,2.63,8.45-5.68,10.51Z"/><path class="cls-1" d="m1043.84,1003.28c.4-5.42.31-8.25.86-10.97,2.56-12.66,5.52-25.26,7.89-37.95,2.36-12.67,2.1-25.27-2.25-37.69-.96-2.74-.99-5.98-.54-8.88,3.62-23.42,2.25-47.08,4.23-70.56,1.7-20.15,4.54-40.21,6.61-60.34,1.32-12.84,2.06-25.74,3.27-38.59.43-4.61,1.45-9.16,4.89-14.08,3.85,11.63,7.26,23.41,11.68,34.86,5.03,13.03,4.11,26.07,2.86,39.49-2.06,22.21-2.02,44.6-4.58,66.74-2.26,19.52-1.79,39.41-8.92,58.47-3.46,9.26-4.34,19.37-6.14,29.13-3.14,17.01-10.26,32.63-19.85,50.37Z"/><path class="cls-1" d="m1161.6,388.82c1.28-14.55,2.16-29.13,3.94-43.63,1.99-16.24,4.43-32.44,7.37-48.56,1.7-9.29,5.15-18.28,7.15-27.54,3.27-15.14,4.96-30.63,9.21-45.51,5.67-19.87,7.49-40.24,11.5-60.3.71-3.57,2.46-9.16,4.84-9.72,3.63-.85,8.56,1.33,12.37,3.21,10.98,5.41,11.93,14.63,8.96,24.36-1.58,5.17-2.47,9.8-.31,14.99.9,2.16.95,5.44-.22,7.39-12.2,20.41-13.05,43.64-19.43,65.48-1.69,5.78-2.7,12.2-6.21,16.95-5.79,7.86-8.33,16.42-9.08,25.36-.97,11.52-7.47,21.03-11.31,31.49-5.6,15.28-10.87,30.67-16.28,46.02-.84,0-1.67,0-2.51,0Z"/><path class="cls-1" d="m901.07,328.81c-10.81-26.07-20.38-49.16-29.95-72.26-4.7-.22-7.76-.37-11.33-.54-.94-3.71-2.49-7.42-2.72-11.19-.87-14.13-1.25-28.29-1.93-42.43-.29-6.02,1.3-10.75,7.45-14.1,3-1.63,4.74-5.15,7.32-7.57,2.72-2.55,5.77-4.8,10.76-8.9,1.88,7.89,3.2,13.15,4.38,18.43,2.16,9.65,4.29,19.3,6.3,28.97.42,2.04,1.22,4.83.18,6.19-4.27,5.55-1.2,10.94-.1,16.22,3,14.34,8.22,28.48,9.28,42.9,1,13.59,4.08,27.57.36,44.29Z"/><path class="cls-1" d="m908.85,648.45c-16.76-16.47-21.22-39.17-32.19-59.1-10.03,6.78.84,14.35-3.09,21.47-5.89-2.3-5.76-6.72-5.88-11.34-.1-4.08.17-8.68-1.7-12.13-17.24-31.69-27.98-65.61-40.61-98.89-4.46-11.75-10.26-23.05-15.2-34.66-1.65-3.89-2.5-8.06-1.47-13.28,9.63,12.15,19.92,23.91,28.71,36.56,9.57,13.78,16.49,28.72,19.23,45.28,1.1,6.61,4.82,12.96,8,19.14,9.96,19.37,21.3,38.17,24.55,59.98.71,4.78,4.7,9.11,6.96,13.74,5.2,10.68,10.26,21.41,15.37,32.12-.89.37-1.79.73-2.68,1.1Z"/><path class="cls-1" d="m1114.51,808.07c-7.72-58.45-.32-160.24,13.68-185.54,2.12,20.79,4.62,41.15.39,62.19-4.32,21.48-5.07,43.6-6.8,65.48-.78,9.79.79,19.78-.41,29.5-1.18,9.6-4.5,18.98-6.86,28.37Z"/><path class="cls-1" d="m932.51,315.34c9.21,12.04,18.52,23.66,20.67,38.59,1.57,10.87,6.48,20.46,14.84,28.59,6.94,6.75,10.03,15.14,10.96,24.53,1.29,13.11,3.49,26.14,5.19,38.45-5.34-.51-11.93-1.14-19.69-1.89-.59-7.21-.68-15.28-2.05-23.17-1.69-9.7-3.99-19.35-6.84-28.81-5.6-18.57-11.88-36.96-17.65-55.48-2.13-6.85-3.64-13.86-5.43-20.8Z"/><path class="cls-1" d="m1240.39,332.39c-2.87,6.48-5.92,12.9-8.53,19.48-1.59,4-3.61,8.25-3.52,12.36.59,26.5-7.78,50.97-18.99,74.82-4.26,9.07-6.8,18.25-7.34,28.26-.4,7.47-1.34,15.17-7.12,21.84-3.43,3.96-4.1,9.97-6.66,14.88,3.97-30.64,6.53-61.44,17.97-90.78,1.39-3.57,1.21-7.63,2.22-11.36,1.21-4.5,2.72-8.95,4.46-13.29,1.44-3.6,5.08-7.11,4.85-10.49-1.12-16.6,12.19-28.21,16.43-42.87.45-1.56,2.51-2.73,3.82-4.07.8.4,1.6.81,2.4,1.21Z"/><path class="cls-1" d="m581.95,731.36c-16.35-18.94-31.6-36.66-46.92-54.33-2.61-3.01-5.18-6.17-8.33-8.64-19.52-15.33-28.73-37.89-45.36-55.23-.91-.95-.4-3.07-.59-5.1,6.93-1.46,10.19,2.41,13,6.18,8.6,11.58,18.64,21.79,29.88,31.32,5.95,5.05,9.11,12.86,13.74,19.3,11.24,15.65,22.52,31.29,33.99,46.79,1.8,2.43,4.77,4.08,7.04,6.24,3.67,3.5,6.24,7.34,3.56,13.48Z"/><path class="cls-1" d="m1250.31,381.26c-2.08-11.42,8.03-100.38,18.62-125.46,8.26,1.46,7.95,7.33,7.21,12.76-1.28,9.37-3.19,18.67-4.88,27.98-3.93,21.62-7.85,43.25-11.88,64.86-1.03,5.49-2.21,10.99-3.9,16.33-.44,1.39-3.1,2.19-5.16,3.53Z"/><path class="cls-1" d="m1146.15,511.2c-6.5-21.38,4.31-83.64,16.81-105.47,3.06,12.39,1.67,22.39-2,32.51-1.54,4.24-2.28,8.85-2.56,13.34-.66,10.65.24,21.32-6.99,30.94-2.67,3.55-2.71,8.92-3.5,13.52-.86,5.01-1.19,10.1-1.76,15.16Z"/><path class="cls-1" d="m1329.02,544.73c-.57,5.49-1.14,10.99-1.71,16.48-.98-.14-1.97-.27-2.95-.41-1.53-5.79-1.38-11.34,4.67-16.08Z"/><path class="cls-1" d="m881.59,622.13c.65,1.4,1.3,2.8,1.94,4.2-.48.21-.96.41-1.44.62-.69-1.39-1.39-2.77-2.08-4.16.53-.22,1.05-.44,1.58-.66Z"/><path class="cls-1" d="m870.85,1254.17c-1.14-2.31-1.92-4.85-3.47-6.89-18.2-23.94-37.81-47.07-54.37-71.94-12.17-18.27-27.86-32.89-43.8-47.9-14.24-13.4-25.82-29.21-39.88-42.8-17.71-17.12-32.36-36.43-48.46-54.69-5-5.66-9.59-11.67-13.92-17.8-4.9-6.93-11.96-11.61-18.18-17.19-11.86-10.64-26.83-18.54-35.28-32.55-3.75-6.21-9.46-11.41-15.08-18,9.5-2.17,15.47-.65,20.27,5.77,17.65,23.6,41.88,41.53,64.17,60.88,9.92,8.61,18.97,18.08,29.01,26.6,9.48,8.04,17.27,18.04,24.65,27.91,17.09,22.88,40.54,40.33,59.85,61.29,9.36,10.16,19.46,19.78,28.23,30.35,7.62,9.18,12.83,19.45,16.39,31.01,2.93,9.5,10.97,17.8,17.46,26.16,7.97,10.27,15.01,20.75,16.15,33.73.1,1.15-.44,2.35-.68,3.53-1.02.84-2.04,1.68-3.06,2.52Z"/><path class="cls-1" d="m954.24,1273.85c-14.74,2.87-23.85-8.7-37.47-6.66-.52-4.41-.89-8.1-1.4-11.76-2.01-14.52-4.11-28.74-13.45-41.55-4.61-6.33-10.51-13.53-7.44-22.71.45-1.36-.57-3.4-1.45-4.84-8.46-13.8-16.6-27.8-25.71-41.22-8.9-13.12-18.88-25.6-28.3-38.42-7.84-10.67-16.64-20.88-23.11-32.23-10.5-18.42-25.6-33.61-37.77-51.47,2.17,1.56,4.73,2.83,6.45,4.74,12.19,13.52,23.86,27.45,36.38,40.69,9.14,9.67,19.42,18.39,28.99,27.72,11.17,10.89,23.12,21.28,32.85,33.2,8.92,10.91,15.23,23.63,22.9,35.45,20.21,31.17,29.2,66.8,46.21,99.25,1.33,2.54,1.38,5.67,2.33,9.82Z"/><path class="cls-1" d="m497.09,1050.65c15.12-3.97,16.75,14.44,30.2,15.7-2.46-7.14-6.41-11.9-11.46-16.36-4.65-4.11-9.12-8.69-12.39-13.77-6.03-9.39-1.8-16.25,10.71-18.93,10.42,27.19,30.41,48.95,47.7,72.22,3.17,4.26,7.23,8.15,9.42,12.8,8.95,18.98,24.75,33.06,38.99,48.32,5.12,5.49,8.91,12.05,14.15,17.42,8.1,8.29,16.3,16.68,25.57,23.78,21.91,16.77,43.83,33.67,67.01,48.86,17.04,11.16,36.23,19.47,54.18,29.5,7.42,4.15,14.07,9.46,21.65,14.63-2.16.86-3.22,1.63-3.63,1.4-19.54-10.91-39.03-21.89-58.5-32.91-4.76-2.7-9.19-5.98-14.15-8.3-26.88-12.52-49.77-30.22-73.48-47.01-25.79-18.26-48.73-39.36-68.25-62.77-24.27-29.09-53-54.34-77.69-82.91-.23-.26-.03-.84-.03-1.67Z"/><path class="cls-1" d="m594.77,1015.32c8.74-4.19,12.84.67,16.75,4.71,23.62,24.37,47.16,48.82,70.56,73.37,12.02,12.61,24.51,24.94,35.29,38.42,8.49,10.62,14.75,22.78,21.83,34.34.47.77-.46,2.29-.8,3.72-42.92-30.18-73.3-70.52-106.83-108.01-13.04-14.58-26.57-29.39-36.8-46.54Z"/><path class="cls-1" d="m513.1,969.56c10.82-2.28,16.64,1.51,21.62,9.15,13.44,20.64,27.16,41.15,41.71,61.13,11.15,15.32,23.57,29.85,35.73,44.51,3.35,4.04,5.37,7.86,3.8,13.09-17.39-11.38-90.45-102.12-102.86-127.87Z"/><path class="cls-1" d="m623.08,936.42c62.2,38.21,116.65,84.43,163.31,139.17-2.12-1.03-4.64-1.67-6.29-3.14-14.38-12.87-28.46-26.04-42.92-38.83-21.14-18.7-42.06-37.65-64-55.52-13.56-11.05-28.87-20.25-43.32-30.37-3.49-2.45-6.7-5.24-10.04-7.88,1.09-1.14,2.18-2.29,3.26-3.43Z"/><path class="cls-1" d="m806.88,1294.67c6.1,3.46,12.19,6.92,18.29,10.38-8.24-.26-13.92-4.62-19.95-8.4.55-.66,1.11-1.31,1.66-1.97Z"/><path class="cls-1" d="m1576.32,569.87c6.87.32,11.93.75,17,.74,4.49-.01,8.97-.52,14.66-.88-.55,3.85-.26,6.5-1.35,8.5-2.51,4.58-4.96,9.51-8.75,13.11-19.7,18.72-30.95,42.38-45.13,64.35-9.76,15.12-20.9,29.48-31.23,44.3-3.75,5.38-6.98,11.08-10.37,16.68-4.3,7.09-8.49,14.24-12.8,21.32-.67,1.11-1.53,2.44-2.67,2.94-17.31,7.55-19.32,24.36-26.92,37.78-2.08,3.67-4.46,7.19-6.7,10.78-3.68,5.92-8.11,11.56-10.86,17.83-4.71,10.73-7.66,22.14-12.71,32.7-3.71,7.77-9.52,14.69-14.54,21.9-2.35,3.38-5.02,6.57-8.72,11.38,4.61.56,7.72,1.75,8.57.93,7.91-7.63,19.02-12,24.12-22.7,2.97-6.25,9.45-11.06,16.25-15.73-.4,3.15.08,6.7-1.35,9.36-5.46,10.15-11.32,20.13-17.48,29.93-2.77,4.41-6.36,8.44-10.02,12.28-8.44,8.87-19.71,8.35-27.1-1.16-2.7-3.48-6.32-7.01-7.1-10.93-.93-4.66-1.07-10.96,1.62-14.45,11.16-14.47,18.21-30.32,22.49-47.46.62-2.47,1.77-4.99,3.32-7.08,10.74-14.54,21.81-28.87,32.42-43.49,2.81-3.87,4.3-8.54,6.54-12.78,3.04-5.76,5.64-11.83,9.5-17.1,5.13-7.03,11.32-12.89,13.23-22.12,1.46-7.06,6.68-13.96,11.78-19.76,10.93-12.43,16-27.68,24.69-41.15,9.01-13.96,17.89-28,26.64-42.1,7.78-12.54,15.31-25.21,23-37.9Z"/><path class="cls-1" d="m1398.46,816.57c.7-3.12.76-6.52,2.2-9.32,6.96-13.55,14.48-26.85,21.38-40.43,2.52-4.97,4.11-10.39,5.69-15.71,1.35-4.56,1.05-9.76,3.29-13.82,4.59-8.34,12.84-15.57,15.05-24.25,2.48-9.72,7.88-17.05,13.07-25.13,8.04-12.51,14.94-25.64,22.3-38.52,1.74-3.04,2.94-6.44,5.13-9.15,11.29-14,19.06-29.42,23.67-46.37,1.32-4.86,4.46-9.28,6.62-13.95,3.76-8.12,10.66-14.96,10.42-24.72-.21-8.7,14.16-18.58,25.07-19.08,7-.32,10.39,4.51,6.68,10.06-3.16,4.73-7.75,8.62-11.09,13.25-16.43,22.8-33.36,45.12-41.05,72.51-4,14.25-12.45,27.57-19.86,40.84-11.66,20.88-22.95,41.8-32.29,63.75-8.16,19.16-18.22,37.8-29.37,55.64-6.04,9.67-16.1,17.18-24.35,25.67-.86-.42-1.71-.84-2.57-1.27Z"/><path class="cls-1" d="m1622.37,695.45c8.9-16.51,17.7-32.08,25.69-47.99,3.8-7.58,6.06-15.82,9.04-23.75,3.19-8.49,6.29-17.02,9.72-25.43.77-1.88,2.62-4.63,4.19-4.76,7.71-.64,7-7.11,9.32-11.37,6.99.47,8.06,4.11,6.57,8.95-1.78,5.79-4.11,11.43-5.82,17.24-3.39,11.48-5.61,23.33-10,34.45-4.41,11.17-10.15,21.97-19.44,30.81-3.12,2.97-4.48,7.47-6.85,11.16-4.88,7.62-12.02,11.19-22.43,10.68Z"/><path class="cls-1" d="m1554.32,778.41c-6.75-3.15-12.84-5.68-12.91-14.07,21.14-4.51,26.67-22.99,36.92-37.24,8.76-12.17,15.71-25.46,23.92-37.99,2.81-4.28,7.01-7.78,12.71-10.49-2.08,4.77-4.45,9.46-6.16,14.34-1.85,5.29-2.81,10.84-4.67,16.13-2.41,6.87-5.29,13.6-8.04,20.36-6.78,16.7-14.11,32.95-32.88,41.66-3.2,1.49-5.57,4.51-8.89,7.3Z"/><path class="cls-1" d="m1610.3,623.09c8.09,5.19,7.37,10.81,4.04,15.71-5.65,8.3-12.04,16.21-18.59,23.94-3.08,3.62-7.26,6.44-12.99,11.39,6.12-20.22,21.91-32.83,27.55-51.04Z"/><path class="cls-1" d="m1492.17,553.3c3.29-7.79,6.46-15.63,9.91-23.36,1.65-3.7,5.36-5.85,8.73-3.05,1.88,1.57,2.72,6.83,1.33,8.66-5.2,6.81-11.51,12.9-17.41,19.26-.85-.5-1.7-1-2.55-1.51Z"/><path class="cls-1" d="m1473.69,822.81c-1.4,1.88-2.81,3.77-4.21,5.65-.55-.32-1.1-.65-1.65-.97,1.35-2.01,2.7-4.03,4.05-6.04.6.45,1.21.91,1.81,1.36Z"/><path class="cls-1" d="m1392.07,968.91c-2.07.69-4.12,1.49-6.25,1.97-.46.11-1.83-1.24-1.76-1.35,1.04-1.61,2.26-3.12,3.44-4.66,1.52,1.35,3.05,2.69,4.57,4.04Z"/></g></svg>