<?xml version="1.0" standalone="no"?>
<!DOCTYPE svg PUBLIC "-//W3C//DTD SVG 20010904//EN"
 "http://www.w3.org/TR/2001/REC-SVG-20010904/DTD/svg10.dtd">
<svg version="1.0" xmlns="http://www.w3.org/2000/svg"
 width="2084.000000pt" height="2084.000000pt" viewBox="0 0 2084.000000 2084.000000"
 preserveAspectRatio="xMidYMid meet">

<g transform="translate(0.000000,2084.000000) scale(0.100000,-0.100000)"
fill="#000000" stroke="none">
<path d="M7655 15274 c-214 -18 -435 -64 -643 -135 -929 -317 -1639 -1164
-1842 -2199 -71 -365 -79 -805 -20 -1191 102 -673 370 -1176 940 -1763 104
-108 2108 -2025 2950 -2823 353 -334 471 -462 1099 -1190 205 -238 376 -433
379 -432 4 0 93 104 197 231 529 644 720 864 1044 1203 100 105 747 793 1438
1529 1144 1219 1279 1366 1505 1643 548 672 735 965 878 1380 171 493 196
1068 70 1593 -261 1081 -1128 1920 -2187 2115 -369 68 -723 55 -1099 -40 -404
-103 -808 -326 -1125 -621 -358 -333 -645 -774 -785 -1206 -15 -49 -31 -88
-34 -88 -3 0 -27 62 -54 138 -100 277 -284 604 -472 841 -96 119 -331 355
-444 445 -374 296 -806 484 -1272 551 -103 15 -428 27 -523 19z m766 -604
c699 -71 1329 -471 1724 -1095 75 -120 183 -338 231 -469 21 -58 42 -106 45
-106 3 0 13 26 23 58 73 231 244 536 429 767 361 449 898 757 1457 836 121 17
468 17 575 0 550 -88 978 -308 1355 -697 389 -401 624 -913 681 -1479 15 -149
6 -459 -16 -605 -65 -416 -225 -770 -535 -1185 -315 -421 -500 -631 -1535
-1735 -549 -586 -1100 -1171 -1224 -1300 -334 -349 -464 -498 -865 -985 -132
-159 -244 -296 -251 -303 -10 -11 -88 74 -421 460 -303 350 -471 536 -649 714
-132 132 -766 741 -1410 1353 -1159 1102 -1409 1348 -1572 1551 -307 382 -483
786 -548 1260 -22 158 -31 525 -16 675 52 546 240 1020 566 1430 76 96 263
284 360 362 457 369 1040 549 1596 493z"/>
<path d="M8344 14064 c-306 -41 -621 -171 -872 -360 -100 -75 -277 -247 -359
-349 -239 -299 -394 -654 -460 -1060 -22 -137 -25 -541 -5 -680 79 -549 271
-909 732 -1376 58 -59 535 -515 1060 -1014 525 -499 1047 -1001 1160 -1114
131 -131 329 -349 544 -598 186 -216 341 -393 345 -393 4 0 97 109 206 242
364 441 455 544 765 868 102 107 556 589 1007 1071 931 994 1170 1271 1402
1623 324 492 420 1067 275 1638 -180 712 -736 1279 -1429 1458 -532 137 -1081
33 -1540 -292 -105 -74 -301 -261 -386 -366 -156 -194 -256 -371 -361 -642 -9
-23 -12 -17 -44 65 -160 413 -456 779 -819 1010 -152 97 -381 193 -564 236
-200 48 -453 61 -657 33z m677 -365 c216 -21 392 -73 578 -169 344 -178 628
-492 783 -864 l37 -91 18 45 c38 98 147 300 211 390 37 52 112 141 167 198
546 570 1363 659 2022 220 149 -99 352 -302 452 -452 118 -178 191 -339 242
-534 126 -489 47 -964 -231 -1387 -198 -300 -398 -529 -1290 -1479 -1069
-1138 -987 -1048 -1272 -1391 -138 -165 -254 -301 -258 -303 -5 -2 -133 142
-287 320 -153 177 -318 365 -368 417 -49 52 -520 505 -1046 1007 -613 584
-993 954 -1058 1030 -284 329 -421 641 -460 1048 -76 777 288 1499 920 1826
270 139 560 198 840 169z"/>
<path d="M9022 13209 c-287 -37 -556 -178 -769 -403 -190 -201 -311 -437 -375
-730 -30 -137 -33 -482 -5 -621 56 -283 159 -489 362 -725 39 -45 390 -385
780 -757 865 -823 914 -873 1189 -1193 120 -140 229 -266 241 -278 l22 -24
221 264 c121 144 271 318 333 384 63 67 395 420 738 785 780 831 978 1071
1106 1342 200 423 159 951 -106 1352 -290 439 -793 674 -1284 600 -439 -66
-826 -367 -1016 -789 -19 -42 -36 -76 -39 -76 -3 0 -23 39 -45 86 -130 290
-405 564 -686 685 -213 92 -448 127 -667 98z"/>
</g>
</svg>
