<?xml version="1.0" encoding="utf-8"?>
<!-- Generator: Adobe Illustrator 26.2.1, SVG Export Plug-In . SVG Version: 6.00 Build 0)  -->
<svg version="1.1" id="Layer_1" xmlns="http://www.w3.org/2000/svg" xmlns:xlink="http://www.w3.org/1999/xlink" x="0px" y="0px"
	 viewBox="0 0 1920 1247.48" style="enable-background:new 0 0 1920 1247.48;" xml:space="preserve">
<style type="text/css">
	.st0{fill:none;}
	.st1{fill:#1A1A1A;}
	.st2{fill:#C37026;}
	.st3{fill:#1A1A1A;stroke:#1A1A1A;stroke-width:3.8109;stroke-miterlimit:10;}
	.st4{fill:#FFFFFF;}
	.st5{fill:#FFFFFF;stroke:#1A1A1A;stroke-width:1.9054;stroke-miterlimit:10;}
	.st6{stroke:#000000;stroke-width:3.8109;stroke-miterlimit:10;}
	.st7{fill:none;stroke:#C37026;stroke-width:67.5455;stroke-miterlimit:10;}
</style>
<g>
	<path class="st0" d="M766.47,920.78"/>
	<g>
		<path class="st0" d="M731.72,939.83"/>
	</g>
	<g>
		<path class="st1" d="M124.57,1228.34h-14.1v-133.38h14.1V1228.34z M209.36,1166.79h-86.32v-12.39h86.32V1166.79z M208.03,1094.95
			h13.91v133.38h-13.91V1094.95z"/>
		<path class="st1" d="M244.04,1228.34l60.97-133.38h13.91l60.97,133.38h-14.86l-56.02-125.19h5.72l-56.02,125.19H244.04z
			 M268.05,1192.71l4.19-11.43h77.55l4.19,11.43H268.05z"/>
		<path class="st1" d="M425.43,1228.34l-44.97-133.38h14.48l42.11,125.57h-7.24l43.45-125.57h12.96l42.87,125.57h-6.86l42.49-125.57
			h13.53l-44.97,133.38h-14.86l-40.97-119.09h3.81l-41.16,119.09H425.43z"/>
		<path class="st1" d="M578.63,1228.34l60.97-133.38h13.91l60.97,133.38h-14.86l-56.02-125.19h5.72l-56.02,125.19H578.63z
			 M602.64,1192.71l4.19-11.43h77.55l4.19,11.43H602.64z"/>
		<path class="st1" d="M736.59,1228.34v-133.38h14.1v133.38H736.59z"/>
		<path class="st1" d="M794.13,1228.34v-133.38h14.1v133.38H794.13z"/>
		<path class="st1" d="M959.52,1229.48c-10.04,0-19.31-1.68-27.82-5.05c-8.51-3.36-15.88-8.1-22.1-14.19
			c-6.22-6.1-11.08-13.27-14.58-21.53c-3.5-8.25-5.24-17.27-5.24-27.06c0-9.78,1.74-18.8,5.24-27.06
			c3.49-8.26,8.38-15.44,14.67-21.53c6.29-6.1,13.69-10.83,22.2-14.19c8.51-3.36,17.78-5.05,27.82-5.05
			c9.65,0,18.73,1.62,27.25,4.86c8.51,3.24,15.69,8.1,21.53,14.58l-8.96,8.96c-5.46-5.59-11.5-9.62-18.1-12.1
			c-6.61-2.47-13.72-3.71-21.34-3.71c-8,0-15.43,1.37-22.29,4.1c-6.86,2.73-12.83,6.61-17.91,11.62
			c-5.08,5.02-9.05,10.86-11.91,17.53c-2.86,6.67-4.29,14.01-4.29,22.01s1.43,15.34,4.29,22.01s6.83,12.51,11.91,17.53
			c5.08,5.02,11.05,8.89,17.91,11.62c6.86,2.74,14.29,4.1,22.29,4.1c7.62,0,14.74-1.27,21.34-3.81c6.6-2.54,12.64-6.6,18.1-12.2
			l8.96,8.96c-5.84,6.48-13.02,11.37-21.53,14.67C978.45,1227.83,969.3,1229.48,959.52,1229.48z"/>
		<path class="st1" d="M1013.83,1228.34l60.97-133.38h13.91l60.97,133.38h-14.86l-56.02-125.19h5.72l-56.02,125.19H1013.83z
			 M1037.83,1192.71l4.19-11.43h77.55l4.19,11.43H1037.83z"/>
		<path class="st1" d="M1191.03,1228.34v-121.19h-46.87v-12.2h107.85v12.2h-46.87v121.19H1191.03z"/>
		<path class="st1" d="M1382.33,1229.48c-10.04,0-19.31-1.68-27.82-5.05c-8.51-3.36-15.88-8.1-22.1-14.19
			c-6.22-6.1-11.08-13.27-14.58-21.53c-3.5-8.25-5.24-17.27-5.24-27.06c0-9.78,1.74-18.8,5.24-27.06
			c3.49-8.26,8.38-15.44,14.67-21.53c6.29-6.1,13.69-10.83,22.2-14.19c8.51-3.36,17.78-5.05,27.82-5.05
			c9.65,0,18.73,1.62,27.25,4.86c8.51,3.24,15.69,8.1,21.53,14.58l-8.96,8.96c-5.46-5.59-11.5-9.62-18.1-12.1
			c-6.61-2.47-13.72-3.71-21.34-3.71c-8,0-15.43,1.37-22.29,4.1c-6.86,2.73-12.83,6.61-17.91,11.62
			c-5.08,5.02-9.05,10.86-11.91,17.53c-2.86,6.67-4.29,14.01-4.29,22.01s1.43,15.34,4.29,22.01s6.83,12.51,11.91,17.53
			c5.08,5.02,11.05,8.89,17.91,11.62c6.86,2.74,14.29,4.1,22.29,4.1c7.62,0,14.74-1.27,21.34-3.81c6.6-2.54,12.64-6.6,18.1-12.2
			l8.96,8.96c-5.84,6.48-13.02,11.37-21.53,14.67C1401.26,1227.83,1392.12,1229.48,1382.33,1229.48z"/>
		<path class="st1" d="M1436.64,1228.34l60.97-133.38h13.91l60.97,133.38h-14.86l-56.02-125.19h5.72l-56.02,125.19H1436.64z
			 M1460.65,1192.71l4.19-11.43h77.55l4.19,11.43H1460.65z"/>
		<path class="st1" d="M1608.7,1228.34h-14.1v-133.38h91.46v12.2h-77.36V1228.34z M1607.18,1159.55h70.5v12.2h-70.5V1159.55z"/>
		<path class="st1" d="M1729.31,1216.14h80.22v12.2h-94.32v-133.38h91.46v12.2h-77.36V1216.14z M1727.79,1154.6h70.5v12h-70.5
			V1154.6z"/>
	</g>
	<g>
		<ellipse class="st2" cx="921.52" cy="506.63" rx="338.22" ry="109.17"/>
		<path class="st3" d="M889.73,51.59c13.77,3.25,13.37,31.21,32,71.7c9.66,20.99,13.76,19.77,25.85,45.73
			c9.37,20.14,14.03,36.19,17.89,49.71c13.36,46.78,20.05,70.16,15.91,99.41c-1.81,12.77-6.24,30.94-1.99,55.67
			c1.34,7.8,2.4,13.66,5.96,19.88c12.6,21.97,44.35,23.44,53.68,27.84c33.8,15.9,65.01,45.55,103.39,101.4
			c9.86,14.35,81.02,162.05,61.64,296.25c-1.83,12.69-21.91,40.31-13.92,47.72c6.45,5.98-28.51,70.99-53.68,71.58
			c-21.97,0.51-33.76,2.46-49.71,3.98c-19.48,1.86-45.06,1.26-95.44,0c0,0-34.71-0.87-113.33-3.98
			c-12.09,6.31-23.55-0.79-31.81-7.46c-9.19-6.64-12.29-18.56-5.96-32.31c7.47-16.22,26.62-15,35.08-24.73
			c2.17-5.26-5.91-14.73-7.24-36.91c-2.31-38.7-4.56-48.57-3.98-45.73c2.3,11.26-7.66,34.84-11.93,63.62
			c-2.05,13.79-4.88,10.51-7.46,22.37c-5.2,23.9-23.1,50.49-31.32,58.16c-6.24,5.82-21.9-1.34-38.77,2.98
			c-12.52,3.21-33.79,8.66-40.16-12.76c-2.92-9.83-1.01-20.62,4.95-28.97c9.39-13.14,17.23-6.27,27.26-13.95
			c9.46-7.24,10.58-19.55,11.93-53.68c1.2-30.34,1.66-54.8,1.99-67.6c1.25-48.81,3.51-43.04,1.99-53.68
			c-5.07-35.52-21.56-39.32-29.82-79.53c-5.49-26.69,1.78-25-3.98-47.72c-9.22-36.38,0.59-24.13-14.97-61.86
			c-9.62-23.34-23.86-27.84-29.83-67.6c-3.94-26.21,2-94.45,28.53-152.21c7.75-16.86,21.28-30.01,23.75-34.3
			c2.09-3.63-9.7-6.83-16.9-12.92c-6.93-5.86-13.27-16.8-17.88-26.94c-8.46-18.59,5.58-24.41,6.45-25.34
			c10.91-11.7,17.42-25.89,22.87-33.72c6.15-8.83,8.87-20.85,18.42-29.08c43.67-37.65,91.16-15.66,101.25-31.69
			c5.14-8.18,1.93-5.89,10.24-27.96C882.91,71.03,882.16,49.81,889.73,51.59z"/>
		<g>
			<path class="st4" d="M770.48,216.65c36.26,42.44,61.96,94.36,71.37,149.53c1.28,7.88,2.34,15.78,2.94,23.73
				c-1.75-11.82-4.07-23.5-6.98-35.07C825.57,304.6,801.35,257.92,770.48,216.65L770.48,216.65z"/>
		</g>
		<g>
			<path class="st4" d="M774.64,211.41c43.83,34.57,79.15,80.48,99.12,132.76c2.79,7.48,5.37,15.02,7.5,22.7
				c-4.02-11.25-8.57-22.26-13.68-33.04C845.81,286.95,812.96,245.88,774.64,211.41L774.64,211.41z"/>
		</g>
		<g>
			<path class="st4" d="M765,217.35c28.55,40.35,46.88,90.22,41.66,140.12c-1.11,9-2.64,18.39-5.28,27.06
				c1.43-7.2,2.76-14.42,3.19-21.74l0.51-5.46C808.31,307.16,790.62,259.76,765,217.35L765,217.35z"/>
		</g>
		<path class="st5" d="M853.54,930.64c0.51-5.2-3.41-13.04-7.7-16.65c-9.13-7.66-24.9-2.74-30.82-9.44
			c-0.32-0.36-1.23-1.46-2.73-2.73c-2-1.7-4.89-4.14-8.45-4.47c-4.15-0.39-5.63,2.43-8.95,1.49c-2.21-0.63-4.48-5.51-6.64-6.16
			c-2.24-0.67-7.56,1.66-8.77,2.43c-6.78,4.3-11.21,15.75-11.76,18.39c-1.82,8.88-0.94,16.12,2.81,23.61
			c0.69,1.39,4.23,8.7,17.15,11.62c6.67,1.51,8.9-3.05,25.1-4.66c9.38-0.93,15.07-1.15,20.63-0.25c5.11,0.82,9.87,0.76,13.17-0.5
			C851.41,941.47,853.05,935.66,853.54,930.64z"/>
		<g>
			<path class="st1" d="M819.27,910.08c-1.69,2.28-3.07,4.65-4.52,7.06c-1.44,2.3-2.83,4.65-3.6,7.28
				c-1.76,5.31-1.46,10.93-2.58,16.4c-0.54-7.02-1.17-14.6,2.51-20.99C813.35,916.27,815.9,912.74,819.27,910.08L819.27,910.08z"/>
		</g>
		<g>
			<path class="st0" d="M792.52,899.97"/>
		</g>
		<g>
			<path class="st1" d="M792.4,901.06c-10.43,7.09-13.43,16.53-13.51,28.62c-0.02,3.71,0.38,7.42,1.08,11.15
				c-2.97-7.06-3.26-15.08-1.8-22.56C779.76,910.7,785.28,903.97,792.4,901.06L792.4,901.06z"/>
		</g>
		<g>
			<path class="st4" d="M989.51,558.08c3.35,21.18,2.17,42.81-1.66,63.84c-1.79,10.66-4.24,21.49-9.64,31.06
				c-2.64,4.81-6.04,9.27-9.66,13.34c-8.88,10-18.94,19.13-29.2,27.72c-13.45,11.88-24.3,27.08-29.65,44.29
				c-3.15,9.91-4.48,20.2-5.41,30.6c-1.61,15.76-0.83,31.56-0.59,47.39c1.03,31.2,3.65,64.37,34.99,79.68
				c13.22,7.1,29.97,11.61,44.4,16.34c7.71,2.39,15.57,5.63,22.11,10.6c4.37,3.31,8.27,7.32,11.41,11.8
				c2.31,3.34,4.41,6.27,7.72,8.49c8.39,6.66,16.37,4.79,26.19,3.59c-7.79,1.69-16.3,4.3-23.88,0.32c-2.51-1.19-4.87-2.59-6.98-4.45
				c-4.06-3.71-6.55-8.36-10.62-11.9c-3.75-3.53-8.04-6.43-12.65-8.7c-7.93-4.09-21.32-6.97-30.02-9.56
				c-15.41-4.54-31.67-9.56-44.53-19.96c-26.32-22.39-25.04-60.51-25.97-92.04c-0.24-10.59-0.26-21.81,0.96-32.3
				c1.45-16.25,4.38-32.81,12.37-47.38c5.23-9.75,12.08-18.38,19.85-26.18c3.81-3.83,8.17-7.26,12.32-10.6
				c8.07-6.65,16.01-13.74,23.15-21.37c11.77-12.08,16.44-25.2,19.73-41.45C989.01,600.53,991.24,579.33,989.51,558.08
				L989.51,558.08z"/>
		</g>
		<path class="st5" d="M958.15,926.65c0.51-5.2-3.41-13.04-7.7-16.65c-9.13-7.66-24.9-2.74-30.82-9.44
			c-0.32-0.36-1.23-1.46-2.73-2.73c-2-1.7-4.89-4.14-8.45-4.47c-4.15-0.39-9.33,2.31-12.65,1.37c-2.21-0.63-0.77-5.39-2.94-6.04
			c-2.24-0.67-7.56,1.66-8.77,2.43c-6.78,4.3-11.21,15.75-11.76,18.39c-1.82,8.88-0.94,16.12,2.81,23.61
			c0.69,1.39,4.28,8.49,17.15,11.62c15.06,3.67,9.5,1.27,26.62,1.63c8.64,0.18,14.57-1.19,20.13-0.3c5.11,0.82,9.02,0.23,12.32-1.02
			C956.19,943.21,957.66,931.68,958.15,926.65z"/>
		<g>
			<path class="st1" d="M921.52,905.16c-8.69,4.67-11.06,19.14-10.6,28.16c0.22,3.5,0.86,7,2.27,10.32
				c-6.02-9.06-4.96-22.2,0.18-31.46C915.19,909.07,917.91,906.02,921.52,905.16L921.52,905.16z"/>
		</g>
		<g>
			<path class="st1" d="M892.07,894.35c-13.38,8.92-16.59,27.32-11.18,41.75C872.58,922.52,876.72,900.98,892.07,894.35
				L892.07,894.35z"/>
		</g>
		<path class="st6" d="M580.85,18"/>
		<path class="st2" d="M1268.62,625.57c-1.09,62.64,8.51,416.08-329.7,416.08c-313.68,0-353.47-352.32-353.96-413.24
			c-1.66-210.09-24.67-107.19,128.93-86.21c63.28,8.65,143.51,19.37,216.72,16.65c63.97-2.38,151.81-14.8,199.82-27.7
			C1225.82,505.53,1272.6,396.57,1268.62,625.57z"/>
		<path class="st7" d="M1264.39,618.27h-10.68c33.99,6.55,72.81,27.37,94.79,62.13c15.85,25.07,20.61,55.59,14.94,84.7v0
			c-12.49,64.16-70.71,111.27-135.8,105.26c-2.87-0.27-16.43-2.93-16.43-2.93"/>
		<path class="st2" d="M572.96,625.57c1.09,62.64-8.51,416.08,329.7,416.08c313.68,0,353.47-352.32,353.96-413.24
			c1.66-210.09,24.67-107.19-128.93-86.21c-63.28,8.65-143.51,19.37-216.72,16.65c-63.97-2.38-151.81-14.8-199.82-27.7
			C615.77,505.53,568.99,396.57,572.96,625.57z"/>
	</g>
</g>
</svg>
